<?xml version="1.0" standalone="no"?>
<!DOCTYPE svg PUBLIC "-//W3C//DTD SVG 20010904//EN"
 "http://www.w3.org/TR/2001/REC-SVG-20010904/DTD/svg10.dtd">
<svg version="1.0" xmlns="http://www.w3.org/2000/svg"
 width="1800.000000pt" height="1800.000000pt" viewBox="0 0 1800.000000 1800.000000"
 preserveAspectRatio="xMidYMid meet">

<g transform="translate(0.000000,1800.000000) scale(0.100000,-0.100000)"
fill="#000000" stroke="none">
<path d="M5900 15275 c-102 -7 -225 -17 -275 -24 -49 -6 -110 -13 -135 -15
-117 -10 -248 -27 -274 -36 -16 -6 -42 -10 -58 -10 -36 0 -92 -41 -123 -90
-24 -38 -52 -131 -66 -215 -12 -76 -19 -107 -35 -142 -8 -17 -14 -37 -14 -45
0 -31 -53 -122 -96 -166 -69 -70 -80 -88 -61 -107 8 -8 17 -19 19 -24 2 -6 24
-6 57 0 29 6 59 8 67 5 7 -3 65 2 128 10 63 8 145 14 182 12 l67 -3 24 -95
c14 -52 26 -102 26 -110 2 -13 -31 -16 -218 -21 -330 -10 -494 -37 -715 -119
-47 -17 -97 -35 -112 -40 -124 -39 -359 -190 -470 -303 -131 -133 -159 -212
-133 -375 10 -64 30 -92 69 -95 21 -2 34 -11 46 -32 9 -17 35 -43 57 -59 35
-24 44 -26 63 -16 17 9 25 9 38 -4 10 -8 29 -19 45 -25 31 -12 34 -32 13 -88
-8 -21 -17 -51 -20 -68 -3 -16 -17 -70 -31 -120 -29 -101 -78 -286 -135 -510
-21 -82 -52 -199 -69 -260 -17 -60 -38 -135 -46 -165 -8 -30 -26 -95 -40 -145
-14 -49 -32 -119 -40 -155 -8 -36 -23 -94 -33 -130 -11 -36 -34 -117 -51 -180
-18 -63 -43 -153 -56 -200 -13 -47 -31 -114 -40 -150 -9 -36 -27 -103 -40
-150 -13 -47 -31 -114 -40 -150 -9 -36 -20 -78 -25 -95 -7 -24 -32 -130 -55
-230 -4 -18 -205 -75 -262 -75 -29 0 -77 -7 -108 -15 -56 -14 -155 -77 -155
-97 0 -6 -11 -26 -25 -44 -18 -24 -30 -62 -45 -149 -19 -102 -20 -130 -11
-212 21 -193 101 -299 273 -359 66 -24 78 -25 167 -16 138 13 140 10 161 -153
5 -38 27 -209 50 -380 22 -170 52 -400 65 -510 14 -110 32 -243 40 -295 8 -52
22 -153 30 -225 8 -71 22 -175 30 -230 8 -55 17 -129 20 -165 3 -36 15 -126
26 -200 33 -231 38 -272 49 -370 6 -52 15 -119 22 -148 11 -51 10 -54 -30
-140 -39 -82 -54 -128 -97 -297 -10 -38 -21 -79 -26 -90 -5 -11 -20 -78 -35
-150 -45 -224 -55 -512 -29 -805 33 -374 74 -539 197 -780 91 -178 96 -186
125 -199 14 -7 23 -18 21 -28 -2 -12 3 -17 12 -16 9 2 24 -13 35 -34 11 -20
43 -60 70 -88 49 -49 185 -155 200 -155 4 0 30 -14 58 -31 27 -16 66 -32 86
-35 20 -2 63 -9 96 -15 33 -6 224 -13 424 -16 l364 -6 51 26 c28 14 101 42
161 62 61 19 119 41 130 47 10 6 76 30 145 53 69 24 157 57 195 73 39 17 111
45 160 62 50 18 108 40 130 50 22 10 99 39 170 65 72 26 157 57 190 70 33 13
103 38 155 55 52 18 123 45 157 61 35 16 100 41 145 55 45 14 105 37 132 49
48 22 89 38 256 95 36 12 72 26 80 31 21 13 22 13 139 50 57 18 98 35 91 37
-21 7 -380 -47 -615 -92 -225 -44 -313 -59 -345 -61 -33 -1 -489 -84 -578
-105 -23 -6 -61 -10 -83 -10 -22 0 -48 -4 -57 -9 -9 -5 -41 -11 -69 -15 -55
-6 -70 4 -33 24 15 8 19 17 15 31 -4 12 -1 27 8 37 14 15 87 213 106 287 4 17
13 39 19 50 5 11 8 31 6 45 -9 52 0 55 163 42 169 -14 282 -3 456 43 31 8 83
21 114 29 87 22 100 51 59 127 -13 24 -32 69 -41 99 -10 30 -24 64 -30 75 -7
11 -16 31 -20 45 -4 14 -25 69 -46 123 -22 54 -37 102 -34 107 7 12 72 5 190
-21 50 -10 124 -25 165 -33 100 -18 240 -47 440 -91 329 -72 397 -86 536 -110
78 -14 208 -40 290 -59 413 -93 443 -98 514 -82 118 26 424 96 485 111 33 8
101 21 150 30 50 9 135 27 190 40 55 13 136 30 180 40 44 9 125 27 180 40 55
13 147 33 205 45 58 12 179 39 270 61 91 21 215 47 275 59 108 20 166 33 235
50 45 12 250 57 315 70 56 11 209 44 300 65 33 7 114 25 180 40 66 14 164 38
217 52 l97 26 128 -22 c151 -26 303 -53 428 -76 117 -21 221 -39 375 -64 69
-11 151 -27 183 -36 32 -8 73 -15 92 -15 28 0 38 -7 70 -51 20 -28 39 -58 43
-67 10 -28 75 -102 89 -102 7 0 22 -9 32 -19 28 -28 153 -40 483 -50 297 -9
308 -7 393 45 26 16 56 34 66 40 11 6 27 19 37 28 9 9 69 42 132 74 63 32 140
73 170 91 30 18 91 50 135 72 44 22 109 56 145 76 136 75 193 103 211 103 10
0 21 5 24 10 4 6 22 17 41 25 20 8 56 29 82 46 25 17 89 53 141 81 53 28 123
66 157 84 33 19 68 34 77 34 9 0 20 6 24 13 4 8 33 25 63 39 104 48 102 59 -5
28 -55 -17 -116 -37 -135 -45 -19 -8 -64 -22 -100 -30 -36 -9 -128 -36 -205
-61 -195 -62 -592 -174 -618 -174 -13 0 -17 4 -11 9 15 15 137 78 206 106 35
15 88 39 118 55 53 27 171 79 400 176 58 24 114 49 125 54 40 18 351 141 398
157 26 9 47 19 47 23 0 17 -146 51 -535 126 -139 26 -267 52 -365 74 -52 11
-133 27 -180 35 -129 23 -221 43 -227 49 -3 2 -9 67 -14 144 -12 200 -55 386
-136 597 -19 50 -41 108 -49 130 -9 22 -24 56 -33 75 -20 39 -37 114 -24 108
4 -2 30 -14 57 -26 27 -13 65 -37 84 -54 l36 -31 95 6 c53 2 103 8 113 12 18
7 31 58 32 125 1 33 -7 56 -31 95 -18 27 -45 75 -59 105 -15 30 -34 63 -42 72
-13 16 -13 18 2 24 10 4 45 3 79 -2 75 -9 169 -7 216 6 22 6 39 6 46 0 8 -7
18 -4 29 9 16 18 16 31 5 173 -7 97 -13 477 -15 1038 -1 487 -5 926 -8 975
-11 168 -15 239 -46 950 -5 121 -14 308 -20 415 -5 107 -17 353 -25 545 -9
193 -23 478 -31 635 -24 429 -25 453 -34 750 -5 151 -14 304 -19 340 -17 109
-76 322 -102 372 -5 10 -9 29 -9 42 0 21 -39 83 -40 63 0 -5 -12 6 -27 23 -68
82 -257 193 -416 245 -60 20 -257 61 -334 70 -32 4 -74 11 -93 16 -115 28
-440 58 -700 64 -151 3 -387 11 -523 17 -188 9 -315 8 -525 -1 -152 -6 -322
-13 -377 -15 -127 -5 -311 -22 -440 -41 -55 -8 -154 -19 -220 -25 -66 -6 -178
-18 -250 -26 -198 -22 -312 -33 -405 -39 -47 -2 -188 -16 -315 -30 -126 -14
-315 -32 -420 -40 -104 -8 -201 -17 -215 -20 -14 -3 -149 -14 -300 -25 -151
-11 -291 -22 -310 -24 -19 -3 -143 -12 -275 -21 -465 -31 -613 -44 -720 -64
-173 -32 -292 -52 -405 -70 -69 -11 -228 -36 -355 -56 -126 -20 -259 -40 -295
-45 -36 -5 -112 -17 -170 -26 -58 -10 -130 -20 -160 -23 -30 -4 -60 -10 -67
-14 -13 -8 -39 95 -28 113 3 5 30 10 60 10 76 0 238 64 348 138 44 29 45 40
12 76 -19 20 -33 26 -67 26 -65 0 -107 27 -148 93 -64 107 -75 125 -114 194
-51 89 -111 169 -139 187 -59 38 -166 42 -487 21z m440 -58 c30 -16 58 -44 92
-92 26 -39 48 -74 48 -79 0 -5 10 -23 23 -40 13 -17 49 -76 80 -131 81 -145
73 -138 152 -139 68 -1 89 -12 63 -33 -11 -9 -67 -34 -163 -73 -11 -5 -42 -18
-70 -30 -41 -17 -70 -21 -168 -21 -64 0 -175 -4 -245 -10 -70 -6 -171 -12
-225 -15 -55 -2 -102 -6 -106 -9 -4 -2 -66 -9 -137 -14 -71 -6 -185 -17 -254
-25 -116 -14 -362 -37 -540 -52 l-75 -6 43 37 c23 21 51 54 61 74 25 48 85
246 106 346 35 169 63 207 166 231 129 30 375 58 689 79 129 8 240 17 245 19
6 3 46 5 91 5 66 1 89 -3 124 -22z m8458 -672 c-3 -3 -9 2 -12 12 -6 14 -5 15
5 6 7 -7 10 -15 7 -18z m-8441 -75 c10 -60 9 -60 -16 -66 -14 -3 -50 -12 -80
-20 -29 -9 -60 -13 -68 -10 -8 3 -24 0 -36 -6 -12 -7 -30 -13 -40 -14 -10 -1
-28 -6 -40 -11 -23 -11 -45 -16 -247 -58 -69 -14 -185 -39 -259 -55 -133 -29
-151 -30 -151 -7 0 7 -11 48 -25 91 -27 84 -32 136 -14 136 6 0 111 9 233 20
301 27 451 39 581 46 61 3 112 8 114 10 2 2 12 4 21 4 13 0 20 -14 27 -60z
m-437 -346 c63 -3 165 -12 225 -20 61 -9 144 -19 185 -24 153 -17 306 -55 535
-131 99 -34 227 -77 285 -96 98 -33 126 -43 248 -92 96 -40 235 -79 602 -172
41 -10 118 -26 170 -34 82 -14 203 -45 330 -86 42 -13 142 -79 148 -96 9 -29
-29 -22 -79 13 -59 41 -246 104 -311 104 -20 0 -79 11 -130 25 -51 14 -124 34
-163 45 -38 10 -142 38 -230 61 -88 23 -200 55 -250 70 -49 16 -108 34 -130
40 -22 6 -87 29 -145 51 -326 124 -499 170 -907 244 -173 31 -845 43 -1133 20
-257 -21 -445 -53 -512 -87 -20 -10 -51 -19 -68 -19 -17 0 -50 -11 -73 -24
-23 -14 -71 -36 -107 -49 -59 -23 -113 -50 -265 -131 -27 -15 -61 -37 -75 -51
-14 -13 -39 -30 -56 -37 -32 -14 -62 -35 -149 -108 -105 -88 -114 -93 -130
-80 -25 21 -17 48 28 97 142 154 446 354 592 389 17 4 35 10 40 15 16 12 254
80 320 91 33 5 67 13 76 18 15 8 205 41 344 59 66 9 532 6 785 -5z m-23 -125
c6 -6 8 -20 6 -30 -4 -15 -13 -19 -32 -17 -20 2 -27 9 -29 31 -3 23 0 27 20
27 13 0 29 -5 35 -11z m-1129 -83 c-2 -24 -8 -32 -27 -34 -45 -7 -69 52 -29
67 39 14 59 2 56 -33z m1177 -20 c39 -2 106 -9 150 -15 44 -6 143 -15 220 -20
90 -6 190 -21 280 -42 77 -17 160 -35 185 -40 25 -4 63 -14 86 -22 22 -8 67
-16 100 -18 58 -4 59 -4 62 24 3 27 16 33 40 18 9 -5 13 -22 10 -47 l-3 -39
50 -12 c28 -7 75 -20 105 -29 30 -9 72 -19 93 -24 48 -10 68 -27 47 -41 -8 -5
-26 -7 -38 -4 -75 18 -1358 23 -1592 6 -91 -6 -294 -16 -453 -21 -291 -10
-394 -21 -637 -64 -100 -18 -152 -32 -200 -57 -36 -18 -78 -39 -95 -47 -96
-48 -205 -175 -205 -240 0 -38 -35 -184 -76 -319 -13 -45 -38 -139 -54 -210
-17 -70 -42 -166 -56 -213 -15 -47 -30 -105 -35 -130 -4 -25 -15 -70 -23 -100
-16 -57 -66 -253 -109 -425 -14 -55 -35 -134 -46 -175 -41 -141 -71 -300 -71
-368 0 -125 48 -226 129 -271 l44 -24 991 -2 c1080 -3 1680 -11 1823 -26 184
-18 493 -6 528 21 6 4 21 11 35 15 42 13 163 86 211 129 72 64 189 216 189
247 0 8 4 19 9 25 9 10 47 120 79 229 12 41 25 133 32 220 11 141 63 397 90
447 6 10 10 31 10 48 0 17 9 56 19 88 24 71 57 202 66 262 4 25 15 74 25 110
34 124 39 158 46 276 6 131 -11 277 -41 335 -20 39 -57 73 -108 100 -44 23
-44 35 -1 18 16 -6 61 -19 99 -29 39 -10 109 -30 158 -44 48 -14 91 -26 95
-26 5 0 7 13 4 29 -3 23 1 30 17 36 32 10 44 -3 38 -46 -5 -41 3 -49 51 -49
15 0 39 -8 54 -18 l28 -17 5 -1165 c3 -641 8 -1249 11 -1351 8 -232 4 -243
-83 -253 -32 -3 -130 -19 -218 -36 -197 -36 -511 -73 -735 -85 -52 -3 -277 -7
-500 -10 -223 -2 -466 -7 -540 -10 -74 -4 -189 -2 -255 3 -66 5 -127 5 -136 1
-14 -7 -18 -2 -23 29 -14 76 -13 75 -126 105 -88 24 -180 29 -610 32 -398 3
-404 3 -353 -14 32 -11 101 -21 175 -25 68 -3 173 -11 233 -16 61 -6 191 -17
290 -26 99 -9 199 -18 223 -19 23 -2 58 -13 77 -25 39 -24 45 -52 20 -103 -27
-57 -86 -328 -106 -487 -11 -85 -25 -243 -30 -350 -12 -219 -15 -201 64 -400
51 -128 104 -266 138 -355 10 -27 19 -58 19 -68 0 -11 9 -21 20 -24 22 -6 28
-43 7 -43 -20 0 -159 61 -197 86 -19 13 -40 24 -46 24 -6 0 -37 11 -68 25 -31
13 -70 25 -88 26 -58 2 -109 39 -55 39 17 0 34 14 60 53 47 69 65 135 49 180
-7 18 -12 39 -12 46 0 19 -68 81 -89 81 -11 0 -44 10 -73 22 -47 19 -71 21
-215 21 -90 0 -163 1 -163 2 0 5 108 75 117 75 20 0 114 110 134 157 37 86 68
197 74 268 14 151 -61 378 -161 491 -19 20 -34 41 -34 44 0 4 -23 22 -51 40
-134 86 -335 127 -443 90 -95 -32 -199 -96 -237 -144 -11 -14 -26 -26 -34 -26
-7 0 -20 -11 -29 -25 -21 -33 -60 -25 -98 19 -33 38 -36 72 -7 79 12 3 19 11
17 18 -7 21 -26 21 -33 0 -9 -31 -34 -34 -45 -6 -5 14 -14 25 -20 25 -16 0
-12 -30 5 -36 22 -9 19 -71 -5 -101 -11 -14 -20 -38 -20 -52 0 -15 -7 -37 -16
-49 -8 -12 -14 -28 -11 -35 2 -6 11 3 21 21 19 36 19 36 48 21 19 -10 20 -9
13 12 -13 42 -16 93 -6 108 8 12 16 8 45 -24 39 -42 43 -60 23 -90 -33 -49
-51 -148 -51 -290 -1 -130 1 -144 25 -195 14 -30 31 -80 38 -110 12 -54 13
-56 84 -98 40 -24 115 -70 167 -102 52 -32 118 -64 145 -71 87 -20 85 -28 -7
-29 -48 0 -108 -6 -134 -12 -56 -15 -104 -65 -104 -108 0 -16 -8 -36 -17 -46
-38 -38 3 -194 51 -194 20 -1 20 -1 3 -11 -19 -11 -180 -15 -196 -5 -5 3 -20
-3 -34 -14 -14 -11 -31 -20 -38 -20 -6 0 -46 -22 -88 -49 -106 -67 -157 -92
-177 -84 -13 5 -15 2 -10 -15 5 -16 2 -22 -16 -28 -13 -4 -24 -2 -26 5 -4 13
-38 15 -47 2 -3 -6 3 -14 12 -20 23 -13 7 -43 -28 -51 -13 -3 -28 -16 -34 -28
-7 -15 -18 -22 -37 -22 -19 0 -37 -12 -62 -42 -20 -23 -35 -47 -33 -52 5 -14
-72 -126 -91 -133 -16 -7 -51 33 -52 58 0 9 7 22 15 29 36 30 2 41 -40 14 -35
-23 -33 -59 5 -79 26 -13 29 -20 24 -43 -4 -15 -10 -29 -14 -32 -3 -3 -14 -36
-24 -73 -12 -44 -22 -64 -27 -56 -4 7 -6 16 -3 20 2 5 -3 57 -12 116 -10 59
-17 119 -17 133 1 14 -3 30 -9 37 -5 7 -7 26 -3 42 3 17 0 65 -9 108 -8 43
-18 110 -21 148 -4 39 -13 108 -20 155 -15 90 -27 176 -46 328 -10 80 -10 94
4 110 8 9 17 26 19 37 3 15 11 20 33 19 17 0 22 1 13 3 -24 6 -23 25 2 40 10
7 35 38 55 69 23 36 41 54 50 51 30 -12 47 41 52 162 6 169 6 195 -2 315 -7
100 -10 112 -39 150 -76 102 -85 120 -84 169 0 26 -2 51 -6 54 -12 13 -20 -9
-20 -56 l0 -49 -48 41 c-52 46 -51 56 9 66 25 4 39 12 41 24 3 14 -4 17 -32
17 -29 0 -36 4 -36 20 0 24 5 24 90 6 95 -20 261 -28 663 -30 336 -2 357 -1
357 16 0 10 -9 19 -22 22 -50 10 -428 24 -662 25 -219 2 -256 4 -307 21 -32
11 -65 20 -74 20 -8 0 -15 6 -15 13 0 22 71 301 80 312 4 6 10 30 14 55 4 25
18 83 33 130 14 47 41 144 59 215 19 72 55 209 80 305 25 96 57 218 70 270 13
52 30 111 38 130 8 19 27 87 41 150 14 63 33 135 41 160 7 25 27 101 44 170
17 69 41 161 54 205 33 107 62 218 76 285 6 30 16 69 22 85 10 30 23 83 34
141 6 28 3 32 -35 49 -63 28 -67 37 -33 83 92 128 287 325 385 389 189 125
382 197 592 223 50 6 99 13 109 17 62 19 561 24 841 9z m8933 -98 c14 -18 30
-230 43 -563 16 -444 45 -1153 54 -1300 3 -49 9 -166 15 -260 6 -93 12 -237
15 -320 3 -82 7 -179 10 -215 10 -152 14 -258 20 -480 3 -129 8 -268 11 -307
l5 -73 -29 0 -28 0 -13 378 c-7 207 -14 442 -17 522 -2 80 -8 224 -14 320 -5
96 -12 240 -15 320 -4 80 -8 168 -11 195 -2 28 -8 147 -14 265 -6 118 -15 280
-20 360 -11 164 -41 751 -41 820 0 25 -2 110 -4 190 -2 79 -1 148 1 152 7 12
20 10 32 -4z m-196 -15 c9 -11 18 -48 21 -94 6 -75 6 -77 -19 -94 -32 -21 -96
-40 -204 -60 -47 -8 -157 -31 -245 -51 -88 -19 -202 -42 -253 -50 -52 -8 -122
-21 -155 -29 -34 -8 -80 -15 -102 -15 -30 0 -36 -3 -25 -10 20 -13 -43 -14
-68 -1 -9 6 -29 12 -43 15 -14 3 -38 18 -54 33 -30 31 -95 128 -95 143 0 5
-11 19 -24 32 -13 13 -27 36 -30 52 -4 17 -15 35 -24 42 -14 10 -6 12 48 13
100 0 271 10 430 26 257 25 362 34 535 46 94 6 172 13 174 15 2 2 30 4 61 4
42 0 61 -5 72 -17z m95 -74 c12 -67 11 -113 -3 -162 -12 -40 -144 -80 -454
-137 -63 -12 -164 -32 -225 -45 -60 -14 -159 -34 -220 -45 -60 -11 -130 -25
-155 -30 -55 -11 -200 -13 -200 -2 0 4 -14 16 -30 26 -35 20 -54 49 -133 196
-86 162 -87 164 -87 183 0 30 23 14 57 -39 17 -27 47 -74 67 -105 20 -30 36
-59 36 -63 0 -10 79 -106 100 -122 8 -7 38 -18 67 -25 46 -10 67 -10 146 5 50
9 142 26 202 37 61 11 146 28 190 38 44 10 132 29 195 41 63 12 162 33 220 47
58 14 116 27 130 30 14 3 39 18 55 32 30 26 30 27 23 101 -3 41 -9 86 -14 99
-5 18 -4 23 6 19 8 -2 19 -35 27 -79z m-1550 -76 c16 -27 37 -61 45 -78 92
-185 172 -294 237 -322 27 -11 54 -13 106 -8 39 3 85 6 103 6 18 -1 31 3 28 7
-3 5 10 9 28 10 19 1 76 11 127 23 52 11 112 25 134 30 22 4 94 20 160 35 66
14 138 30 160 34 165 35 340 79 372 93 12 5 31 7 42 4 16 -4 21 0 21 13 0 28
19 34 24 8 3 -13 10 -174 16 -358 23 -670 48 -1252 70 -1605 5 -88 12 -243 15
-345 3 -102 10 -266 15 -365 14 -268 15 -564 1 -578 -7 -7 -76 -13 -189 -15
-291 -7 -297 -7 -341 16 -28 15 -50 19 -76 15 -42 -7 -45 -33 -5 -43 22 -5 25
-12 24 -46 -1 -65 -8 -74 -56 -74 -44 0 -71 -10 -68 -26 2 -11 -34 -22 -79
-23 -27 -1 -32 2 -27 15 5 12 2 15 -11 9 -10 -4 -63 -17 -118 -30 -55 -13
-113 -28 -128 -34 -16 -6 -41 -11 -57 -11 -16 0 -32 -4 -35 -10 -3 -5 -22 -10
-40 -10 -19 0 -54 -4 -77 -10 -24 -5 -81 -14 -128 -20 -47 -6 -98 -13 -115
-15 -55 -8 -120 -28 -136 -42 -21 -17 -41 -85 -45 -148 -14 -221 -30 -311 -58
-340 -31 -31 -204 -49 -375 -41 -69 4 -196 9 -281 11 l-155 4 -2 121 c-2 98
-6 127 -21 153 -18 31 -20 32 -83 31 -35 -1 -102 -5 -149 -10 -117 -12 -467
-12 -478 1 -16 16 5 55 28 55 29 0 122 40 138 58 14 19 16 128 2 137 -13 8
-13 35 -1 35 5 0 11 -6 14 -12 2 -7 2 -3 0 10 -11 69 -13 108 -5 120 8 12 52
12 263 1 401 -19 554 -21 678 -9 200 20 368 24 458 10 46 -7 96 -9 111 -5 l27
7 -25 13 c-14 7 -63 21 -110 31 -94 20 -331 25 -500 11 -142 -13 -414 -16
-510 -6 -47 5 -152 11 -233 13 -91 3 -154 9 -163 16 -10 9 -12 29 -10 73 5 80
-21 437 -34 471 -5 15 -10 39 -10 53 0 33 -38 86 -57 79 -12 -5 -99 12 -112
21 -9 6 -21 131 -31 308 -5 99 -14 252 -20 340 -5 88 -12 201 -15 250 -3 50
-10 137 -16 195 -5 58 -9 110 -9 117 0 15 249 29 895 48 94 3 296 10 450 16
154 5 339 12 410 14 72 3 229 10 350 15 564 26 796 30 824 15 48 -25 99 -89
164 -207 31 -55 37 -76 43 -149 5 -83 -2 -156 -27 -253 l-13 -48 -52 6 c-31 3
-55 2 -59 -4 -7 -11 -32 -176 -39 -255 -2 -27 -8 -76 -12 -107 -5 -41 -3 -58
5 -58 6 0 11 -3 11 -8 0 -4 -19 -8 -42 -8 -24 0 -86 -8 -138 -16 -52 -9 -97
-14 -99 -12 -8 7 64 32 114 39 28 3 57 11 65 16 35 24 -144 -2 -455 -66 -38
-8 -113 -19 -165 -25 -57 -7 -101 -17 -110 -25 -12 -13 -11 -15 13 -15 15 0
27 -2 27 -4 0 -10 -93 -156 -100 -156 -4 0 -11 11 -14 25 -7 27 15 85 40 106
21 17 17 31 -7 27 -16 -2 -29 -21 -51 -73 -43 -103 -70 -156 -94 -185 -32 -38
-59 -186 -45 -251 6 -27 11 -70 11 -95 0 -46 0 -47 79 -125 7 -8 29 -30 48
-49 19 -19 37 -48 40 -63 4 -20 16 -32 41 -43 43 -18 100 -7 197 37 78 35 164
63 172 56 3 -4 0 -13 -7 -22 -18 -22 -10 -26 31 -15 88 23 178 43 219 49 31 4
45 11 45 21 0 19 -23 18 -100 -5 -33 -10 -85 -20 -115 -22 -51 -4 -53 -3 -35
10 19 15 17 15 -21 10 -29 -4 -49 0 -66 11 -14 9 -42 15 -67 14 -64 -2 -71 11
-74 147 -1 80 7 109 38 125 23 12 28 11 50 -10 23 -22 25 -30 25 -122 0 -89 2
-99 18 -96 22 4 26 92 6 162 -8 27 -14 66 -14 85 0 20 -7 44 -14 54 -12 16
-15 16 -26 2 -8 -9 -25 -15 -39 -15 -46 3 -49 1 -54 -42 -2 -24 -12 -63 -22
-88 -11 -30 -15 -59 -11 -85 4 -22 8 -51 9 -63 2 -13 8 -27 13 -30 5 -4 15
-19 21 -34 12 -27 12 -27 -45 -39 -66 -13 -79 -8 -100 45 -15 38 -15 39 11 62
21 18 35 51 62 144 40 140 43 166 16 175 -10 3 -24 20 -31 38 -6 18 -28 64
-48 103 l-36 71 20 48 c21 52 57 86 96 90 12 2 39 10 58 18 20 9 63 18 95 21
33 3 99 16 147 30 83 23 87 23 78 5 -11 -20 -12 -20 -135 -45 -127 -25 -112
-32 32 -14 45 6 108 19 141 29 32 11 104 22 159 26 90 7 101 6 107 -10 3 -10
0 -27 -8 -39 -11 -17 -12 -42 -7 -111 4 -50 9 -96 12 -104 10 -33 -112 -58
-125 -26 -3 8 -13 15 -22 15 -16 0 -16 -1 -1 -18 24 -26 22 -30 -18 -38 -37
-7 -43 -15 -22 -33 9 -7 23 -8 43 -2 71 22 126 33 224 45 58 8 117 17 133 21
16 4 33 3 41 -4 19 -16 48 -3 41 19 -5 15 2 19 46 25 32 5 55 3 62 -4 16 -16
-8 -38 -49 -46 -31 -5 -35 -9 -30 -30 3 -12 -1 -36 -9 -51 -8 -16 -15 -41 -15
-55 0 -15 -7 -46 -15 -69 -8 -23 -15 -60 -15 -81 0 -21 -4 -40 -9 -43 -8 -5
-138 7 -218 20 l-33 5 1 67 c2 93 25 172 50 172 12 0 24 -12 33 -32 l13 -33 8
30 c11 40 20 45 95 45 68 0 103 12 85 28 -17 16 -263 -17 -410 -55 -33 -8 -85
-21 -115 -28 -175 -43 -194 -64 -30 -34 52 9 116 20 143 23 31 5 47 12 47 22
0 19 24 18 43 -3 13 -15 14 -30 6 -98 -6 -44 -11 -106 -13 -137 -1 -32 -7 -63
-14 -70 -8 -8 -9 -15 0 -25 9 -11 14 -11 30 3 15 14 24 15 53 7 43 -14 53 -11
196 48 120 50 157 57 206 38 l28 -11 -33 -14 c-19 -8 -77 -23 -130 -34 -137
-28 -222 -55 -199 -65 23 -10 25 -9 315 68 65 18 81 31 66 55 -7 11 -29 19
-60 22 -42 4 -46 7 -30 16 14 9 20 25 22 71 2 34 8 73 14 87 13 35 12 56 -1
34 -9 -17 -12 -16 -34 8 -33 36 -13 89 29 78 33 -8 49 17 38 58 l-8 33 -90 5
c-49 3 -95 9 -102 14 -8 4 -22 29 -33 54 -15 35 -17 47 -7 53 7 4 9 11 6 15
-4 4 -19 -1 -34 -10 -24 -16 -24 -19 -10 -35 9 -10 16 -29 16 -44 0 -18 9 -31
30 -44 52 -30 28 -54 -31 -29 -31 13 -36 22 -58 92 -19 62 -22 83 -13 106 12
34 3 42 -38 33 -28 -6 -30 -5 -30 25 0 30 2 32 26 26 14 -4 31 -3 37 3 11 8
138 32 255 46 57 8 72 22 72 74 0 20 -7 34 -19 41 -25 13 -36 -2 -36 -49 0
-32 -3 -36 -35 -43 -19 -5 -74 -13 -121 -18 -48 -5 -90 -10 -95 -12 -5 -2 -10
2 -10 7 -1 6 21 18 49 29 l50 19 -23 17 c-28 21 -21 36 25 44 19 4 37 12 41
18 5 8 1 9 -10 5 -10 -4 -41 -7 -70 -7 -50 0 -53 -1 -49 -23 5 -25 -30 -77
-53 -77 -19 0 -18 50 2 79 15 21 15 24 1 32 -13 8 -15 24 -10 102 7 107 18
127 73 127 47 0 56 11 82 97 16 53 21 97 22 198 1 117 -2 134 -22 170 -12 22
-40 76 -62 120 -44 91 -96 147 -155 166 -51 17 -184 17 -615 1 -190 -7 -401
-15 -470 -17 -69 -2 -280 -10 -470 -19 -190 -8 -421 -15 -513 -15 -93 -1 -171
-3 -176 -5 -4 -3 -153 -10 -331 -16 -179 -7 -336 -13 -350 -14 -19 -1 -25 4
-23 19 1 11 -7 191 -18 400 -10 209 -22 427 -24 485 -14 283 -26 482 -31 493
-3 9 23 18 87 31 95 18 571 70 793 87 70 5 179 14 241 19 61 5 223 10 360 9
136 0 250 3 253 6 3 3 20 5 37 5 27 0 36 -7 62 -47z m-2722 -13 c0 -30 -3 -35
-23 -35 -15 0 -29 10 -40 28 -15 24 -15 29 -2 37 8 6 26 9 40 8 21 -3 25 -8
25 -38z m-6435 5 c0 -18 -7 -26 -26 -31 -40 -10 -50 10 -18 35 35 27 44 27 44
-4z m5562 -57 c9 -7 18 -22 20 -33 3 -18 -3 -20 -50 -23 -52 -3 -53 -2 -47 20
10 32 25 48 44 48 10 0 24 -6 33 -12z m1727 -268 c6 -118 16 -273 21 -345 5
-71 17 -245 25 -385 8 -140 18 -293 22 -340 3 -47 7 -132 8 -190 2 -58 8 -162
14 -230 6 -69 18 -240 26 -380 13 -219 25 -406 40 -615 2 -27 6 -122 10 -210
3 -88 12 -223 19 -300 9 -87 10 -144 4 -152 -5 -7 -5 -14 1 -17 5 -4 10 -32
10 -64 0 -101 9 -251 16 -262 11 -17 9 -170 -2 -181 -6 -6 -32 -9 -59 -7 -46
3 -49 4 -55 38 -4 19 -10 118 -14 220 -7 212 -12 341 -20 455 -3 44 -12 226
-20 405 -9 179 -20 390 -25 470 -5 80 -14 244 -20 365 -5 121 -14 292 -19 380
-6 88 -10 167 -10 175 -3 100 -31 690 -41 835 -5 77 -12 233 -16 347 l-7 207
34 3 c19 2 37 1 40 -2 4 -3 12 -102 18 -220z m-132 112 c3 -94 7 -197 38 -926
8 -192 13 -351 10 -354 -2 -3 -397 -7 -877 -10 l-873 -4 -2 83 c-1 46 -7 320
-13 609 -6 289 -12 537 -15 551 l-4 25 277 18 c306 20 766 60 852 75 30 5 111
10 180 11 69 1 168 6 220 10 52 3 120 7 150 8 l55 2 2 -98z m-2416 57 c27 -27
20 -42 -25 -53 -34 -9 -40 -8 -57 15 -18 24 -18 24 2 42 28 23 54 22 80 -4z
m-1353 -24 c182 -32 248 -59 336 -138 40 -36 43 -45 53 -152 12 -128 -51 -543
-117 -770 -45 -157 -66 -243 -84 -340 -59 -335 -96 -494 -138 -585 -14 -30
-29 -66 -33 -80 -14 -46 -63 -135 -84 -154 -12 -11 -21 -25 -21 -32 0 -26
-169 -95 -290 -117 -81 -15 -464 -14 -540 2 -129 25 -610 33 -1350 22 -399 -7
-788 -16 -865 -21 -77 -6 -217 -13 -310 -16 l-170 -7 -26 39 c-41 62 -45 139
-15 276 14 62 30 136 36 163 7 28 15 61 20 75 4 14 13 52 20 85 7 33 35 149
62 257 27 109 53 217 58 240 16 78 169 684 208 828 30 109 56 162 91 183 50
29 143 56 196 57 28 0 106 7 175 15 182 21 206 24 410 45 102 11 273 29 380
40 187 19 354 35 652 60 148 13 806 36 1085 39 116 1 202 -4 261 -14z m1875
-71 c4 -4 4 -11 1 -15 -7 -12 -5 -749 3 -1016 l6 -223 -59 0 c-36 -1 -67 -6
-78 -15 -11 -8 -32 -15 -46 -15 -15 0 -33 -8 -41 -17 -63 -76 -153 -292 -165
-398 -4 -29 -9 -57 -13 -63 -3 -5 -99 -11 -226 -13 l-220 -4 -5 570 c-3 373
-2 574 5 582 6 7 39 23 75 36 52 20 66 30 73 53 5 16 8 129 7 250 -1 172 1
223 11 230 18 11 175 32 294 40 93 5 304 19 351 23 11 0 24 -2 27 -5z m114
-81 c-1 -49 4 -277 11 -508 6 -231 13 -474 14 -540 l3 -120 -43 0 -43 0 -4
180 c-1 99 -6 381 -11 628 l-7 447 40 0 40 0 0 -87z m528 -1227 c55 -2 112 -9
127 -16 19 -9 31 -10 40 -3 7 6 38 14 69 17 88 11 1048 11 1058 0 9 -10 29
-276 41 -564 5 -107 13 -256 19 -330 6 -74 12 -182 13 -240 l3 -105 -163 -3
-162 -2 5 147 c10 269 15 340 31 424 9 46 18 93 20 104 2 11 8 40 14 65 5 25
13 68 19 95 5 28 23 84 40 127 17 42 31 81 31 86 0 5 18 37 41 71 42 63 47
101 11 82 -24 -13 -63 -64 -89 -116 -25 -49 -89 -245 -98 -300 -4 -22 -15 -83
-25 -135 -22 -114 -38 -270 -47 -478 -4 -111 -10 -155 -20 -164 -8 -6 -43 -10
-84 -9 l-70 2 3 -28 3 -28 -85 -1 c-47 -1 -115 -7 -153 -13 -45 -8 -74 -8 -86
-2 -22 12 -498 17 -603 7 -56 -6 -78 -5 -78 3 0 16 -20 14 -40 -4 -10 -9 -24
-13 -35 -9 -13 6 -16 14 -11 42 3 20 1 41 -5 48 -10 13 -11 32 -6 264 l3 135
32 -2 c59 -2 61 -6 58 -203 -2 -155 -4 -181 -20 -198 -13 -16 -14 -22 -5 -28
7 -4 162 -9 344 -10 181 -1 357 -2 390 -3 61 -1 258 15 219 18 -34 2 -35 11
-4 56 66 95 86 206 53 281 -21 47 -61 97 -89 111 -64 34 -158 19 -194 -29 -32
-43 -39 -142 -15 -204 17 -44 18 -45 29 -22 9 16 10 33 3 53 -18 60 -19 76 -6
120 13 43 15 45 66 55 47 10 57 9 100 -13 46 -22 92 -80 93 -115 0 -21 -22 -9
-40 21 -22 38 -60 64 -113 78 -37 9 -50 9 -62 -1 -19 -16 -20 -94 -1 -148 13
-35 13 -41 0 -46 -8 -3 -14 -13 -14 -21 0 -24 30 -14 53 17 22 29 23 25 -28
94 -6 8 -6 23 1 41 15 43 54 42 114 -2 28 -20 50 -41 50 -46 0 -19 -41 -96
-70 -131 -35 -42 -95 -60 -174 -51 -43 5 -50 9 -63 40 -34 81 29 556 98 738
17 44 40 105 51 135 22 62 62 120 82 120 8 0 18 6 24 13 9 10 4 13 -23 14 -28
1 -41 -6 -65 -33 -16 -19 -30 -41 -30 -49 0 -8 -8 -20 -18 -27 -10 -7 -31 -49
-46 -92 -15 -44 -31 -86 -36 -95 -27 -53 -88 -429 -93 -579 -2 -67 -7 -125
-10 -129 -9 -9 -97 40 -97 53 0 6 -8 18 -18 25 -11 8 -56 42 -102 77 -45 34
-127 90 -181 123 -96 59 -98 61 -88 87 6 15 14 56 19 92 12 97 45 242 84 362
38 119 63 168 82 161 14 -5 48 52 39 67 -12 20 -34 9 -70 -32 -73 -84 -147
-300 -184 -538 -14 -89 -20 -106 -39 -116 -21 -10 -21 -11 -4 -27 10 -10 25
-17 34 -17 8 0 50 -25 94 -55 43 -30 99 -67 123 -82 25 -16 61 -42 80 -59 20
-17 58 -43 84 -59 27 -15 54 -36 60 -46 7 -11 16 -19 22 -19 6 0 21 -7 34 -16
18 -13 20 -18 10 -25 -10 -6 -25 3 -49 25 -19 19 -46 39 -60 46 -48 24 -259
160 -284 183 -14 13 -45 32 -68 41 -24 10 -63 28 -88 40 -41 20 -45 25 -46 59
0 22 -7 42 -17 50 -9 6 -21 34 -27 61 -7 32 -25 66 -51 97 -62 74 -98 82 -403
80 l-249 -1 7 46 c10 78 78 277 112 330 35 54 74 78 154 93 40 7 454 6 715 -3z
m-415 -542 c21 -12 44 -41 64 -78 27 -52 31 -70 31 -135 -1 -75 -10 -607 -21
-1231 -8 -421 -6 -536 10 -585 29 -87 29 -111 1 -141 -22 -24 -25 -34 -20 -66
9 -49 -16 -106 -48 -112 -12 -3 -130 -7 -263 -10 -133 -3 -328 -11 -435 -17
-107 -6 -232 -9 -278 -7 -103 4 -95 -12 -110 231 -6 95 -15 215 -21 267 -5 52
-12 169 -15 260 -3 91 -10 194 -15 230 -5 36 -14 129 -20 207 l-12 142 41 39
41 39 2 334 c1 271 4 529 7 629 1 12 20 15 104 17 56 1 271 6 477 10 206 4
391 5 411 2 20 -3 52 -14 69 -25z m372 -393 c14 -9 68 -46 120 -82 51 -36 111
-76 134 -87 22 -11 46 -28 54 -37 7 -9 33 -28 57 -42 27 -15 43 -32 43 -44 0
-18 -10 -19 -157 -21 -237 -4 -326 1 -339 17 -11 15 -10 297 2 316 7 12 51 1
86 -20z m823 -93 c-29 -100 -59 -159 -88 -174 -35 -19 -133 -30 -172 -20 -34
9 -26 18 19 21 55 5 156 38 156 52 0 12 14 37 66 121 8 12 17 22 20 22 3 0 2
-10 -1 -22z m3730 -153 c19 -30 35 -61 35 -69 0 -8 -16 -20 -35 -26 -50 -17
-65 -2 -65 65 0 101 15 108 65 30z m-4058 0 c23 -20 25 -24 10 -25 -27 0 -57
18 -57 35 0 22 15 18 47 -10z m1235 -101 c26 -13 48 -58 35 -70 -3 -3 -27 5
-54 19 -26 14 -56 28 -65 31 -10 3 -18 15 -18 27 0 19 4 21 37 14 21 -4 50
-13 65 -21z m-752 5 c50 5 431 1 440 -4 28 -18 -3 -23 -137 -23 -82 0 -162 -3
-179 -7 -20 -4 -34 -3 -38 4 -5 8 -13 8 -28 0 -19 -10 -121 -5 -141 8 -18 11
17 34 42 27 14 -3 33 -6 41 -5z m2670 -11 c0 -19 -2 -20 -10 -8 -13 19 -13 30
0 30 6 0 10 -10 10 -22z m-12 -81 c11 -23 24 -55 28 -72 11 -35 40 -44 58 -19
12 16 13 16 20 -1 4 -10 -2 -31 -14 -50 -11 -18 -20 -40 -20 -49 0 -22 -37
-111 -67 -158 -14 -23 -31 -38 -43 -38 -34 0 -83 58 -92 109 -20 109 -20 135
4 206 20 59 27 70 47 71 24 1 41 19 41 42 0 22 18 3 38 -41z m-3820 21 c14
-14 16 -79 3 -128 -6 -19 -15 -54 -21 -77 -6 -26 -17 -43 -25 -43 -23 0 -22
222 1 244 19 19 26 20 42 4z m575 -40 c-3 -29 -14 -84 -24 -123 -11 -38 -19
-80 -19 -93 0 -13 -7 -37 -16 -54 l-16 -30 -255 5 c-140 3 -257 8 -259 10 -2
2 3 20 11 40 8 20 15 45 15 55 0 11 11 54 25 96 14 42 25 90 25 105 0 16 6 32
13 34 6 3 123 6 259 6 l247 1 -6 -52z m168 36 c10 -12 10 -24 1 -60 -19 -72
-14 -154 9 -154 6 0 7 30 4 73 -5 56 -3 76 9 92 15 20 15 20 29 1 14 -19 15
-19 38 6 32 34 102 51 152 36 20 -6 57 -28 83 -50 25 -21 49 -38 53 -38 4 0
17 -9 29 -21 33 -30 15 -44 -20 -14 -16 14 -33 25 -38 25 -5 0 -17 3 -27 7
-16 6 -16 4 2 -16 28 -32 68 -51 109 -51 32 0 66 -20 66 -39 0 -5 23 -22 50
-39 30 -19 50 -38 50 -49 0 -13 8 -19 26 -21 14 -1 35 -9 47 -17 12 -8 36 -15
53 -15 39 0 64 -9 64 -22 0 -6 -16 -7 -37 -4 -21 3 -59 8 -84 11 -41 5 -54 14
-132 91 -54 55 -92 85 -103 82 -18 -3 -53 -108 -54 -160 l0 -27 -82 6 c-46 3
-85 10 -86 15 -6 15 -60 38 -91 38 -35 0 -48 -15 -30 -36 10 -12 10 -20 1 -34
-8 -14 -8 -21 -1 -26 6 -4 14 -2 18 4 8 14 94 15 430 9 257 -6 311 -2 311 21
0 12 -89 64 -99 57 -14 -8 -61 18 -145 80 -89 66 -126 100 -126 117 0 7 8 40
18 73 l18 60 175 0 174 0 6 -75 c3 -41 1 -86 -3 -99 -16 -46 -17 -184 -1 -199
8 -8 12 -21 9 -29 -3 -8 -6 -21 -6 -28 0 -12 -57 -14 -345 -12 -190 1 -345 -1
-345 -5 0 -9 -24 -8 380 -16 l325 -7 0 -70 0 -70 -85 -1 c-567 -11 -842 -4
-1129 25 -46 4 -99 5 -117 1 -43 -10 -67 7 -99 69 -13 27 -31 51 -40 55 -43
16 10 24 171 25 173 2 176 1 171 -19 -6 -25 -2 -25 23 0 11 11 26 20 33 20 9
0 13 18 12 63 0 34 8 94 18 132 9 39 22 99 27 134 11 76 37 111 86 111 17 0
37 -7 45 -16z m449 -39 c0 -30 -4 -55 -10 -55 -7 0 -67 48 -124 101 -6 5 20 9
62 9 l72 0 0 -55z m724 30 c20 -9 41 -26 45 -38 9 -24 17 -138 27 -397 4 -91
7 -176 8 -189 0 -13 -4 -26 -10 -28 -14 -5 -29 130 -19 169 5 21 2 30 -19 43
-31 20 -33 40 -7 57 16 10 18 22 15 117 -4 124 -23 253 -35 245 -12 -7 -11
-102 1 -202 10 -78 9 -86 -12 -128 -12 -25 -26 -48 -30 -50 -20 -13 -41 75
-45 186 -2 63 -8 137 -13 163 -6 27 -8 53 -4 58 8 14 57 11 98 -6z m3111 -160
c3 -60 -15 -125 -34 -125 -5 0 -17 -3 -26 -6 -14 -6 -15 3 -11 85 3 51 8 97
12 102 3 6 17 9 31 7 23 -3 25 -8 28 -63z m-1086 -76 c-21 -65 -31 -89 -40
-89 -13 0 0 48 25 92 25 44 30 43 15 -3z m-5357 -11 c7 -13 13 -43 14 -68 4
-117 29 -465 54 -750 15 -169 27 -323 40 -520 22 -338 50 -707 66 -860 9 -85
14 -175 11 -200 -3 -25 -1 -52 3 -60 5 -9 16 -137 24 -285 18 -288 21 -331 36
-525 5 -69 17 -240 25 -380 9 -140 18 -271 20 -290 8 -72 20 -397 17 -445 -3
-43 -8 -54 -40 -82 -23 -19 -66 -40 -112 -53 -41 -13 -102 -31 -135 -41 -45
-14 -108 -20 -255 -24 -107 -3 -231 -8 -275 -10 -80 -4 -539 20 -553 29 -4 2
-106 12 -227 22 -121 9 -229 20 -240 24 -16 6 -23 25 -36 106 -9 55 -26 146
-37 204 -36 178 -62 334 -62 363 0 16 -9 72 -20 125 -10 53 -21 122 -24 152
-6 86 -27 213 -37 231 -4 9 -8 32 -7 51 1 19 -2 39 -5 45 -4 6 -11 48 -16 94
-6 46 -13 94 -17 107 -11 37 13 26 78 -39 34 -33 78 -69 98 -80 19 -10 47 -28
61 -40 17 -13 49 -24 88 -28 34 -4 67 -13 73 -19 17 -17 37 -15 44 3 4 9 -4
23 -20 36 -16 12 -26 30 -26 46 0 22 4 25 25 20 18 -3 29 1 35 14 17 31 12 38
-20 26 -16 -6 -31 -9 -32 -7 -16 26 -77 151 -83 170 -11 35 -89 196 -120 248
-21 34 -23 42 -10 42 8 0 20 -10 26 -23 11 -24 49 -54 49 -39 0 16 -77 95 -87
89 -6 -4 -25 22 -43 56 -17 34 -48 86 -67 115 -19 29 -33 55 -31 58 11 10 68
-62 84 -104 9 -26 23 -53 30 -61 11 -13 14 -12 20 3 8 21 -74 148 -113 173
-15 10 -43 36 -63 57 -19 22 -55 61 -80 86 -25 26 -64 67 -87 91 -23 24 -63
62 -88 84 -26 22 -51 49 -55 60 -4 12 -37 36 -74 54 -88 45 -120 85 -91 114
12 13 11 18 -10 37 -13 12 -26 38 -30 58 -3 21 -24 72 -46 114 -21 42 -39 82
-39 88 0 7 -6 26 -14 43 -20 49 -42 107 -59 162 -9 28 -27 83 -41 123 -32 93
-40 149 -31 217 5 41 11 56 26 60 16 5 19 16 19 70 0 47 -4 64 -15 69 -29 11
-11 248 21 281 11 10 13 27 8 62 -4 38 0 62 20 117 17 45 26 88 26 126 0 51 3
61 26 79 29 23 54 27 54 11 0 -6 -7 -13 -15 -16 -11 -5 -14 -19 -10 -62 2 -32
4 -64 5 -73 0 -9 9 -27 19 -40 20 -24 20 -24 14 72 l-6 97 34 10 c23 8 258 11
734 11 385 1 709 0 720 -1 32 -2 276 23 320 33 22 4 74 15 115 24 41 8 84 19
95 24 24 12 95 28 195 45 109 19 118 19 132 -6z m2658 -10 c11 -18 40 -44 65
-57 25 -13 45 -28 45 -32 0 -14 -48 -22 -94 -15 -27 4 -47 3 -51 -4 -10 -16
-23 -12 -36 11 -9 17 -8 32 1 63 22 74 41 83 70 34z m3537 -85 l48 -6 -40 -17
c-39 -17 -41 -17 -62 3 l-23 20 0 -20 c0 -22 -23 -47 -33 -36 -9 8 -9 78 -1
86 4 3 19 0 35 -9 16 -8 50 -17 76 -21z m-4249 -11 c2 -6 -1 -13 -6 -16 -5 -3
-112 -6 -238 -6 -126 -1 -249 -6 -273 -11 -30 -7 -47 -6 -57 1 -18 15 -7 38
19 42 56 8 552 -1 555 -10z m3372 14 c0 -1 -5 -17 -11 -35 -12 -34 -43 -58
-54 -41 -3 5 1 10 9 10 8 0 20 16 27 35 7 19 17 35 21 35 4 0 8 -2 8 -4z
m-8666 -42 c118 -20 277 -203 323 -369 19 -70 28 -258 15 -325 -14 -73 -71
-222 -83 -214 -5 3 -14 -6 -20 -19 -6 -13 -33 -41 -61 -63 -28 -21 -66 -52
-84 -67 -18 -16 -41 -27 -50 -25 -13 2 -1 22 50 81 78 93 97 127 122 227 22
88 25 307 6 380 -40 144 -65 192 -142 271 -41 42 -97 91 -125 109 -44 28 -46
31 -20 26 17 -3 48 -8 69 -12z m-79 -39 c49 -28 195 -179 195 -200 0 -10 -32
11 -82 56 -125 108 -149 121 -232 125 -160 7 -196 25 -90 44 73 13 163 2 209
-25z m8620 -12 c20 -7 30 -16 30 -30 1 -12 19 -37 45 -58 25 -21 49 -43 53
-51 6 -11 12 -9 27 6 22 22 64 27 58 8 -6 -17 -98 -49 -113 -40 -22 12 -65 69
-65 85 0 8 -15 26 -32 40 -51 39 -78 67 -78 79 0 6 10 2 23 -9 12 -11 36 -25
52 -30z m-10129 -54 c43 -42 68 -76 80 -108 9 -25 23 -61 32 -80 19 -44 28
-279 14 -336 -6 -22 -15 -58 -21 -79 -5 -21 -14 -42 -19 -45 -6 -3 -13 -18
-17 -32 -9 -35 -125 -170 -145 -169 -3 0 -18 12 -34 26 -28 24 -29 28 -15 49
113 180 117 194 118 347 2 178 -88 338 -223 398 l-41 19 38 16 c91 38 133 53
150 54 10 1 47 -27 83 -60z m6448 48 c9 -7 16 -18 14 -24 -2 -6 15 -28 37 -48
37 -35 38 -38 20 -45 -11 -4 -64 -9 -117 -12 -112 -5 -115 -2 -103 77 4 32 12
46 26 50 11 4 23 5 25 2 3 -3 17 -1 32 3 39 12 46 11 66 -3z m1815 -14 c19
-16 47 -111 36 -122 -2 -2 -24 -6 -48 -8 -40 -5 -45 -3 -50 18 -13 48 -8 108
11 118 23 14 27 14 51 -6z m-6817 -13 c33 -13 94 -67 86 -75 -4 -4 -19 2 -35
12 -41 28 -98 53 -120 52 -13 0 -11 -3 7 -9 27 -8 100 -46 141 -73 14 -10 34
-15 43 -11 9 3 16 1 16 -5 0 -5 13 -25 28 -43 16 -18 38 -49 50 -68 24 -40 46
-160 33 -173 -5 -5 -7 -48 -4 -96 6 -93 -10 -174 -47 -238 -11 -18 -15 -33
-10 -33 18 0 11 -28 -15 -58 -23 -28 -137 -90 -200 -110 -16 -5 -39 -6 -50 -2
-11 4 -34 5 -50 3 -20 -3 -35 0 -44 10 -8 11 -23 14 -46 10 -26 -4 -37 -1 -52
17 -10 12 -34 30 -54 40 -23 12 -41 31 -47 50 -6 16 -15 30 -21 30 -19 0 -64
71 -87 138 -19 53 -24 87 -24 162 1 225 73 373 212 435 83 37 239 56 290 35z
m10198 -29 c0 -35 -2 -38 -25 -33 -30 5 -35 45 -7 61 28 17 32 13 32 -28z
m-202 -43 c2 -11 -5 -19 -20 -22 -67 -14 -200 -36 -253 -41 l-60 -5 65 26 c65
26 222 64 250 61 8 -1 16 -10 18 -19z m-11748 5 c-8 -3 -39 -16 -68 -29 -28
-13 -70 -27 -93 -30 -29 -5 -46 -15 -63 -38 -32 -42 -52 -84 -59 -124 -8 -39
8 -35 18 5 10 41 53 109 80 127 13 9 58 23 98 32 l74 17 63 -34 c113 -61 155
-154 155 -341 0 -116 10 -127 25 -30 9 54 7 69 -15 136 -14 41 -25 90 -25 109
0 37 -35 98 -79 134 -21 18 -22 22 -6 17 34 -11 85 -54 111 -93 15 -23 32 -76
46 -140 19 -95 20 -109 8 -189 -14 -89 -29 -122 -98 -212 -52 -70 -60 -73
-155 -61 -151 19 -228 75 -302 220 -26 53 -27 60 -28 217 l0 163 33 51 c34 53
64 74 127 89 41 10 178 13 153 4z m10697 -19 c-3 -3 -12 -4 -19 -1 -8 3 -5 6
6 6 11 1 17 -2 13 -5z m653 -20 c0 -16 -16 -19 -25 -4 -8 13 4 32 16 25 5 -4
9 -13 9 -21z m494 -186 c3 -101 9 -280 14 -398 6 -118 13 -278 16 -355 4 -77
8 -175 10 -217 4 -78 4 -78 -21 -78 -25 0 -25 1 -21 68 1 37 -1 157 -5 267 -4
110 -10 254 -12 320 -12 302 -20 356 -48 338 -5 -3 -37 -12 -71 -19 -34 -7
-90 -19 -126 -28 -36 -8 -112 -24 -170 -36 -58 -11 -154 -31 -215 -44 -60 -14
-164 -36 -230 -51 -66 -14 -160 -35 -210 -46 -177 -39 -261 -57 -312 -64 -29
-4 -56 -12 -61 -18 -19 -25 -44 -114 -46 -162 -1 -27 -10 -64 -19 -82 -9 -18
-17 -48 -17 -67 0 -20 -6 -53 -14 -73 -25 -64 -106 -366 -127 -470 -11 -54
-25 -116 -31 -138 -21 -78 -26 -105 -17 -99 10 6 12 -46 3 -70 -3 -9 -13 -16
-20 -16 -12 0 -13 11 -9 53 8 68 49 291 82 442 14 66 34 156 43 200 9 44 30
121 45 170 15 50 33 110 40 135 7 25 24 77 38 115 28 76 52 224 42 256 -11 34
4 79 28 83 12 2 101 18 197 36 96 17 198 35 225 40 28 5 109 20 180 35 72 14
168 32 215 40 47 8 137 23 200 34 188 32 282 51 330 66 94 29 88 40 94 -167z
m105 163 c8 -14 16 -951 11 -1198 0 -16 -6 -23 -20 -23 -24 0 -25 8 -5 31 14
14 14 19 2 31 -10 10 -16 55 -20 163 -3 83 -11 274 -18 425 -6 151 -11 282
-11 290 1 8 3 76 5 150 3 74 5 138 6 143 2 15 41 6 50 -12z m-5144 -31 c24
-20 13 -94 -19 -126 -21 -22 -32 -24 -104 -23 l-80 1 -7 64 c-11 102 -10 103
99 101 64 -2 99 -7 111 -17z m75 3 c0 -15 2 -15 18 -1 22 21 220 17 412 -7
192 -24 417 -31 709 -22 140 4 260 6 268 3 9 -4 13 -30 13 -99 l0 -94 -417 5
c-681 10 -702 10 -853 18 -80 5 -168 7 -196 5 -58 -3 -78 12 -36 27 22 7 32
21 47 66 15 44 16 59 7 68 -19 19 -15 48 8 48 12 0 20 -7 20 -17z m1729 -27
c7 -8 11 -36 9 -62 -1 -27 2 -65 6 -85 7 -34 6 -36 -22 -42 -16 -3 -42 -9 -57
-13 -27 -7 -28 -6 -23 27 3 19 1 63 -3 99 -5 35 -7 70 -5 77 7 18 80 17 95 -1z
m2391 -26 c-20 -13 -43 -13 -35 0 3 6 16 10 28 10 18 0 19 -2 7 -10z m-8953
-62 c-3 -8 -6 -5 -6 6 -1 11 2 17 5 13 3 -3 4 -12 1 -19z m5033 -123 c25 -3
310 -7 634 -10 622 -5 609 -4 604 -50 -3 -19 -10 -20 -203 -19 -110 1 -371 6
-580 13 -501 16 -611 19 -792 21 -152 2 -153 2 -153 24 0 13 3 26 7 30 8 7
398 0 483 -9z m1585 -6 c8 -24 -10 -41 -73 -65 -47 -18 -58 -14 -64 26 -3 22
1 25 47 33 28 4 54 12 60 18 14 14 23 11 30 -12z m1646 10 c44 -15 51 -22 43
-43 -5 -14 -14 -16 -40 -11 -36 6 -44 -4 -19 -25 27 -23 18 -47 -21 -55 -20
-3 -39 -3 -42 0 -10 10 -30 118 -25 133 6 15 59 16 104 1z m1457 -65 c3 -28 0
-32 -27 -37 -36 -7 -41 -31 -11 -49 15 -10 20 -24 20 -60 0 -26 -4 -58 -10
-73 -7 -18 -6 -31 2 -45 9 -14 9 -25 -1 -47 -23 -48 -30 -101 -15 -114 19 -15
31 18 40 110 10 107 24 96 24 -21 1 -107 6 -274 15 -415 3 -49 1 -84 -5 -88
-7 -4 -7 -13 0 -25 8 -15 6 -21 -9 -30 -11 -5 -27 -10 -37 -10 -14 0 -14 3 -4
15 21 25 -1 37 -35 18 -17 -8 -42 -22 -57 -30 -16 -8 -28 -17 -28 -19 0 -3 24
-2 53 1 75 7 42 -4 -87 -30 -108 -22 -145 -20 -118 7 9 9 5 17 -13 34 -29 27
-33 49 -7 40 11 -4 9 0 -6 12 -74 55 -77 59 -63 76 20 24 48 20 55 -8 6 -24
12 -28 69 -40 40 -9 35 17 -9 37 -26 13 -35 23 -34 40 4 39 1 41 -23 19 -27
-26 -110 -40 -130 -23 -8 6 -42 13 -76 17 -76 6 -75 -7 4 -41 32 -15 69 -43
99 -77 46 -50 96 -143 96 -176 0 -9 9 -35 21 -59 29 -60 74 -68 162 -29 18 7
93 29 167 49 74 19 142 38 151 42 22 8 27 -20 35 -214 l7 -160 -24 -9 c-68
-27 -127 -33 -213 -22 -48 6 -91 8 -97 5 -5 -4 -54 39 -108 95 -70 71 -102
111 -106 133 -19 93 -63 203 -103 260 -38 53 -132 108 -186 109 -111 2 -260
-62 -351 -148 -42 -40 -66 -75 -96 -141 -23 -48 -45 -95 -50 -103 -5 -8 -22
-44 -39 -79 -16 -35 -46 -81 -65 -102 -19 -22 -35 -43 -35 -49 0 -20 -216
-160 -248 -160 -10 0 -28 -7 -41 -16 -13 -9 -42 -21 -65 -26 -61 -14 -105 -47
-128 -98 -23 -50 -72 -199 -82 -246 -11 -52 -52 -80 -171 -119 -61 -20 -177
-64 -260 -99 -91 -38 -197 -75 -270 -92 -114 -27 -134 -29 -379 -31 -142 -2
-261 -4 -262 -6 -2 -2 -6 -127 -8 -277 -3 -198 -7 -275 -15 -278 -18 -6 -101
17 -116 31 -8 9 -14 69 -19 187 -12 326 -35 705 -45 738 -5 18 -19 48 -30 66
-45 73 -30 78 145 46 114 -20 372 -44 396 -35 7 2 56 9 108 14 90 10 181 35
395 111 44 16 121 41 170 55 50 15 119 37 155 50 160 58 243 78 326 77 45 -1
88 -3 95 -4 7 -2 20 11 29 27 8 17 36 62 61 100 26 39 70 120 98 180 101 216
133 271 209 363 129 154 209 194 402 198 63 1 117 3 119 3 12 3 -31 37 -69 53
-38 17 -59 19 -135 13 -50 -3 -117 -16 -150 -27 -69 -24 -89 -38 -55 -38 22 0
23 -1 5 -20 -22 -24 -57 -28 -49 -5 4 8 2 15 -4 15 -5 0 -12 -12 -15 -27 -6
-30 -65 -118 -74 -110 -3 3 0 22 7 42 16 48 6 56 -15 13 -10 -18 -23 -40 -30
-48 -7 -8 -17 -31 -23 -51 -5 -20 -32 -74 -60 -121 -27 -46 -53 -95 -57 -109
-8 -25 -54 -109 -60 -109 -2 0 0 12 5 28 4 15 11 47 14 72 4 36 3 41 -6 25 -6
-11 -16 -23 -22 -27 -12 -8 -37 -89 -30 -100 3 -4 12 -8 20 -8 9 0 14 -4 12
-8 -23 -58 -76 -152 -84 -152 -6 0 -17 7 -24 15 -11 13 -9 22 6 50 14 26 16
40 8 53 -6 10 -7 35 -2 62 4 25 14 93 22 151 20 147 45 236 68 242 14 4 18 14
16 44 0 21 4 48 10 60 6 11 11 33 10 49 -1 46 38 180 46 158 7 -18 8 -18 19 2
23 41 112 134 129 134 27 0 48 -11 48 -27 0 -9 12 -2 33 19 17 18 41 38 52 44
11 7 17 15 12 20 -4 4 -13 2 -19 -4 -7 -7 -22 -12 -35 -12 -46 0 -157 -50
-190 -85 -18 -19 -37 -35 -43 -35 -12 0 -3 49 11 64 5 6 9 18 9 28 0 32 23 67
49 77 26 10 26 10 4 16 -13 4 -23 11 -23 16 0 9 5 11 110 35 109 25 120 27
120 16 0 -5 -7 -15 -15 -22 -8 -7 -15 -20 -15 -28 0 -12 -3 -13 -12 -4 -28 28
-96 7 -115 -35 -15 -31 -8 -44 10 -20 19 25 65 39 89 26 17 -9 26 -5 59 30 22
23 42 41 45 41 3 0 20 11 38 25 19 15 62 31 107 40 41 9 99 22 130 30 30 8 84
19 120 24 134 21 180 30 213 46 27 13 38 14 53 5 14 -9 37 -5 113 20 75 25
105 30 145 26 39 -4 58 -1 85 14 47 26 64 22 68 -16z m-9668 19 c0 -23 -34
-123 -42 -123 -6 0 -8 8 -5 18 3 9 11 38 18 65 7 26 17 47 21 47 4 0 8 -3 8
-7z m4895 -48 c187 -3 410 -8 495 -11 85 -3 303 -9 483 -13 352 -7 346 -6 347
-58 0 -19 -6 -23 -32 -24 -61 -2 -1091 3 -1343 7 -137 1 -273 3 -301 4 -51 0
-51 0 -57 36 -8 51 7 77 41 70 15 -3 180 -8 367 -11z m-4915 -142 c-12 -59
-33 -130 -46 -156 -53 -104 -149 -176 -215 -162 l-31 7 56 23 c31 13 67 30 80
39 28 18 102 159 112 214 4 20 13 46 19 57 7 11 18 37 25 58 22 70 22 30 0
-80z m8172 67 c10 0 32 7 48 15 29 15 30 15 30 -9 0 -31 -25 -138 -45 -197 -9
-24 -23 -75 -32 -114 -8 -38 -23 -90 -33 -115 -11 -25 -31 -99 -45 -165 -15
-66 -40 -167 -55 -225 -24 -92 -52 -238 -78 -405 l-7 -50 -65 -7 c-36 -4 -70
-6 -76 -4 -26 10 31 270 111 506 70 208 70 206 99 320 25 98 52 250 66 377 5
40 14 82 21 95 l12 22 15 -22 c8 -12 23 -22 34 -22z m-1056 -61 c3 -6 10 -84
15 -173 4 -88 13 -206 18 -261 6 -55 18 -264 27 -465 20 -444 22 -479 29 -507
4 -18 1 -23 -15 -24 -11 -1 -26 -2 -32 -3 -7 -1 -12 4 -11 11 4 21 4 66 -1
133 -6 82 -27 689 -26 744 1 22 -3 133 -9 246 l-9 204 -28 24 c-24 21 -34 23
-73 18 -104 -14 -384 -23 -661 -20 -162 1 -637 5 -1055 8 l-760 6 -3 25 c-4
28 20 44 41 26 9 -7 273 -13 853 -18 461 -4 875 -7 919 -6 427 11 534 15 625
27 138 18 148 18 156 5z m1524 -19 c0 -12 -28 -25 -36 -17 -9 9 6 27 22 27 8
0 14 -5 14 -10z m-2635 -86 c383 -7 893 -6 977 2 74 7 68 13 82 -71 4 -30 3
-31 -47 -44 -112 -28 -164 -32 -512 -35 -327 -3 -463 0 -815 18 -297 16 -550
27 -829 36 -190 7 -310 15 -318 22 -14 11 -18 70 -6 82 7 6 898 1 1468 -10z
m-1293 -161 c15 -16 35 -17 40 -2 3 9 65 9 248 1 135 -6 317 -13 405 -16 88
-2 172 -4 188 -5 26 -1 27 -3 27 -50 l0 -50 -32 10 c-18 5 -41 9 -51 9 -15 0
-16 -3 -7 -21 8 -14 20 -20 38 -19 15 1 32 2 38 1 7 -1 11 -64 12 -186 2 -102
7 -219 12 -259 5 -41 10 -163 10 -272 2 -223 1 -224 -70 -203 -31 9 -46 10
-66 0 -15 -6 -29 -9 -32 -6 -3 3 -5 27 -3 53 1 39 -3 52 -20 68 l-22 19 6 -73
c7 -91 5 -92 -158 -121 -66 -12 -149 -28 -184 -36 -35 -9 -67 -13 -70 -10 -3
3 5 8 17 12 12 3 22 9 22 14 0 15 -20 10 -41 -10 -20 -19 -253 -81 -303 -81
-14 0 -35 -4 -48 -9 -42 -16 -102 -30 -183 -41 -44 -6 -102 -18 -130 -25 -27
-8 -117 -29 -200 -46 -82 -17 -170 -37 -195 -45 -25 -7 -74 -18 -110 -25 -98
-16 -147 -26 -240 -49 -148 -36 -154 -36 -168 -5 -17 37 0 55 24 26 10 -11 26
-21 36 -21 34 0 26 17 -17 38 -67 32 -82 77 -23 69 9 -1 18 3 20 8 2 6 -6 11
-18 13 -38 5 -59 119 -29 158 20 26 19 41 -5 47 -29 8 -26 37 4 37 14 0 27 4
30 9 7 11 200 57 294 71 44 6 70 6 79 -1 15 -13 71 17 75 39 2 9 60 32 158 62
85 27 200 64 254 84 54 20 102 34 105 30 13 -13 -59 -62 -100 -69 -24 -4 -51
-11 -59 -16 -28 -16 70 -10 100 6 29 15 164 147 207 204 l22 28 -24 119 c-14
65 -25 140 -25 166 0 26 -4 58 -10 72 -8 22 -7 26 9 26 45 0 76 -31 98 -99
l22 -66 -3 58 c-2 42 -8 61 -22 71 -10 8 -19 25 -19 37 0 13 -4 24 -10 25 -54
4 -126 18 -131 26 -3 5 0 22 6 39 12 29 33 38 45 19 10 -15 46 -12 67 7 28 25
22 31 -32 30 -27 0 -51 1 -53 4 -2 2 -1 30 1 62 3 41 8 57 18 57 11 0 12 -4 4
-19 -5 -11 -10 -27 -10 -36 0 -14 3 -14 25 2 15 11 24 28 25 44 0 26 2 26 60
25 32 0 65 -7 72 -13z m2342 -18 c3 -8 1 -15 -5 -15 -6 0 -6 -7 1 -20 10 -19
13 -73 25 -520 3 -107 8 -247 11 -312 6 -114 6 -116 -17 -131 -13 -9 -36 -19
-51 -22 -16 -4 -28 -11 -28 -16 0 -15 57 -10 70 6 21 25 30 6 30 -64 0 -72
-10 -91 -47 -91 -25 0 -97 -15 -153 -32 -55 -17 -420 -12 -508 6 -40 9 -108
16 -151 16 -113 0 -174 14 -276 64 -49 24 -105 47 -122 51 -25 5 -33 12 -34
28 0 12 -2 87 -4 167 -1 80 -8 279 -14 442 -9 234 -9 301 1 317 9 15 9 25 0
46 -14 31 -15 45 -2 65 8 12 12 13 19 2 6 -10 51 -13 197 -13 309 1 524 -9
524 -25 0 -19 143 -19 196 0 22 7 73 17 114 21 41 4 80 10 85 14 14 9 86 28
111 30 12 0 24 -6 28 -14z m-1353 -72 c1 -43 2 -91 4 -108 1 -16 5 -102 9
-190 4 -88 11 -254 17 -370 11 -262 11 -348 0 -341 -17 11 -31 132 -36 306 -9
324 -24 665 -31 697 -8 41 2 83 21 83 12 0 15 -16 16 -77z m2295 35 c-3 -18
-14 -39 -23 -45 -19 -15 -16 -15 -455 -18 l-328 -2 -6 34 c-4 19 -2 39 3 44 5
5 130 5 308 -1 243 -8 315 -7 380 4 128 22 129 22 121 -16z m-1357 -2 c-12
-10 -79 -16 -79 -6 0 5 19 10 42 10 23 0 39 -2 37 -4z m1311 -127 c0 -26 -91
-320 -119 -384 -5 -11 -16 -58 -26 -105 -9 -47 -22 -105 -28 -130 -6 -25 -11
-70 -12 -102 l0 -56 -60 -18 c-33 -10 -69 -24 -80 -31 -11 -7 -28 -13 -38 -13
-10 0 -35 -9 -55 -19 -45 -23 -282 -104 -288 -99 -2 2 -8 110 -14 239 -5 129
-14 297 -20 374 -21 306 -21 342 -4 349 9 3 106 7 217 7 172 1 473 11 515 17
7 1 12 -10 12 -29z m-7759 2 c37 -5 94 -21 128 -36 58 -26 62 -30 77 -80 16
-48 15 -55 0 -103 -13 -37 -29 -60 -62 -88 l-46 -37 -101 8 c-56 4 -235 9
-397 10 -366 4 -442 18 -452 80 -3 18 4 19 122 22 69 1 147 2 173 2 55 0 87 8
87 23 0 6 -46 9 -127 8 -71 -1 -157 2 -193 7 -58 7 -65 11 -68 31 -9 60 52
125 136 146 56 15 621 19 723 7z m4261 -90 c30 -27 33 -35 45 -132 29 -240 29
-229 -7 -274 -43 -54 -70 -70 -180 -106 -52 -17 -127 -44 -166 -59 -38 -16
-99 -34 -135 -40 -35 -7 -100 -23 -144 -37 -147 -45 -269 -81 -325 -93 -30 -7
-67 -20 -82 -28 -43 -25 -55 -6 -62 101 -7 113 -14 217 -30 462 -8 105 -12
191 -11 193 2 2 140 8 307 13 166 6 375 14 463 18 295 15 290 15 327 -18z
m5387 -232 c19 -7 31 -18 31 -29 0 -18 -23 -27 -205 -78 -38 -11 -99 -28 -133
-38 -70 -19 -95 -14 -100 24 -3 16 4 22 30 27 48 9 280 83 298 95 20 13 40 12
79 -1z m-9814 -53 c121 -13 248 -41 291 -64 11 -5 38 -13 62 -17 23 -4 42 -11
42 -15 0 -5 10 -12 23 -15 12 -4 37 -14 55 -23 29 -13 35 -13 43 -1 7 12 13
11 39 -4 57 -34 85 -47 101 -47 9 0 24 -9 34 -20 10 -11 22 -20 27 -20 5 0 38
-17 73 -37 43 -25 65 -44 65 -56 0 -11 13 -23 33 -32 30 -12 94 -67 235 -200
23 -22 50 -47 60 -56 26 -25 112 -127 112 -133 0 -14 -30 -4 -68 24 -47 34
-62 37 -62 15 0 -9 -7 -18 -15 -21 -8 -4 -15 -14 -15 -23 1 -11 7 -8 24 13 24
29 56 31 56 4 0 -8 12 -19 28 -26 86 -38 146 -108 138 -161 -6 -37 7 -63 74
-156 20 -27 44 -66 53 -85 9 -19 24 -40 35 -47 10 -6 32 -42 48 -80 16 -37 41
-93 55 -123 27 -56 26 -76 -4 -64 -19 7 -23 34 -6 34 6 0 -6 20 -27 45 -20 25
-42 45 -49 45 -7 0 -16 7 -19 16 -5 14 -4 15 9 4 21 -17 21 9 0 36 -12 15 -16
16 -23 6 -7 -10 -22 1 -61 45 -44 49 -49 59 -36 69 9 7 15 26 15 48 0 29 -4
36 -19 36 -20 0 -44 31 -72 90 l-17 35 -11 -28 c-17 -43 -14 -54 22 -76 44
-27 82 -80 68 -94 -7 -7 -36 16 -101 82 -49 50 -90 96 -90 101 0 6 -6 10 -14
10 -8 0 -23 10 -33 23 -10 12 -32 29 -49 36 -40 16 -90 66 -75 75 18 12 13 35
-7 29 -10 -2 -66 20 -126 51 -181 94 -245 115 -416 136 -186 23 -604 7 -795
-30 -85 -16 -467 -31 -482 -18 -8 7 -29 4 -63 -7 -30 -10 -65 -15 -83 -11 -18
3 -61 7 -97 10 -52 3 -69 1 -91 -15 -34 -24 -46 -24 -111 1 -29 11 -62 20 -72
20 -10 0 -25 8 -33 18 -13 15 -14 15 -10 -11 4 -23 1 -27 -12 -22 -9 4 -38 9
-66 12 -27 3 -56 11 -64 16 -7 6 -22 16 -34 22 -30 15 -31 30 -4 57 13 12 39
46 57 73 38 57 111 132 187 190 28 22 79 64 114 93 42 36 68 52 81 49 11 -3
26 3 36 13 28 29 93 57 188 80 49 12 125 34 169 48 125 41 441 53 680 28z
m8087 -452 c3 -3 -1 -23 -10 -45 -17 -44 -16 -44 -133 -24 -39 8 -118 -16
-624 -188 -311 -105 -403 -127 -532 -127 -93 0 -465 37 -507 50 -23 8 -34 6
-47 -6 -16 -15 -21 -13 -61 26 l-43 41 90 -5 c50 -3 133 -10 185 -15 206 -22
473 -13 570 19 14 5 86 27 160 50 74 23 142 44 150 47 85 33 116 45 185 73
197 78 329 108 486 109 69 1 128 -2 131 -5z m-2323 -133 c118 -22 279 -119
385 -231 75 -80 106 -134 106 -185 0 -19 5 -35 11 -35 6 0 8 -11 4 -29 -3 -15
-1 -104 4 -197 6 -93 13 -236 17 -319 3 -82 8 -184 9 -225 5 -97 16 -126 52
-133 56 -10 135 -35 146 -46 8 -8 6 -16 -8 -31 -20 -19 -21 -19 -111 4 -50 13
-96 26 -102 30 -5 3 -10 38 -11 78 -1 40 -4 93 -6 118 -10 92 -25 351 -30 530
-4 102 -11 199 -17 215 -36 104 -75 163 -168 255 -52 53 -111 103 -130 112
-108 51 -144 59 -281 65 -127 5 -142 3 -260 -26 -68 -17 -182 -42 -254 -56
-71 -14 -177 -39 -235 -55 -58 -16 -132 -33 -165 -39 -33 -6 -85 -17 -115 -25
-30 -7 -111 -26 -180 -41 -69 -15 -168 -38 -220 -52 -52 -13 -106 -24 -120
-24 -14 0 -45 -6 -70 -13 -25 -8 -79 -21 -120 -30 -157 -34 -371 -87 -424
-105 l-56 -18 0 43 c0 42 1 43 38 49 20 3 69 13 107 21 39 8 93 19 120 25 28
5 66 14 85 19 19 5 69 16 110 24 41 8 138 29 215 46 77 17 167 35 200 41 33 5
98 18 145 29 334 77 465 105 665 139 28 5 68 14 90 19 35 10 184 38 325 63 53
9 172 4 249 -10z m-5332 -76 c140 -19 295 -62 398 -110 122 -58 365 -255 544
-440 64 -66 135 -140 159 -164 23 -24 42 -45 42 -47 0 -15 -29 5 -87 59 -60
56 -113 98 -246 194 -21 16 -47 36 -57 45 -11 10 -62 46 -114 80 -287 190
-315 202 -566 233 -203 25 -374 29 -470 11 -47 -9 -159 -29 -250 -44 l-165
-27 -520 0 c-603 1 -697 6 -739 40 l-29 23 23 61 c30 81 44 88 117 56 87 -39
132 -46 318 -51 324 -9 656 12 1280 80 164 18 225 18 362 1z m5244 1 c136 -21
269 -70 314 -115 110 -110 173 -219 180 -314 7 -90 15 -219 20 -312 3 -55 10
-167 16 -250 5 -82 11 -197 12 -254 l2 -104 70 -23 c39 -13 84 -24 100 -24 17
-1 39 -5 50 -9 18 -7 17 -9 -11 -24 -17 -9 -71 -25 -120 -36 -49 -11 -120 -28
-159 -39 -261 -75 -454 -131 -475 -140 -14 -5 -50 -15 -80 -22 -30 -6 -98 -24
-150 -40 -52 -16 -120 -36 -150 -44 -30 -8 -95 -26 -145 -40 -49 -15 -164 -47
-255 -72 -217 -61 -263 -74 -470 -134 -96 -28 -195 -55 -220 -60 -25 -4 -56
-13 -70 -19 -14 -5 -77 -24 -140 -42 -112 -30 -257 -72 -585 -167 -150 -44
-166 -47 -260 -44 -55 2 -104 7 -108 11 -5 5 27 11 70 15 96 9 227 41 271 67
18 10 39 19 46 19 7 0 24 12 38 28 40 43 52 127 44 300 -11 252 -16 334 -25
422 -5 47 -9 94 -8 105 0 25 -41 647 -51 767 -4 48 -5 96 -1 106 5 14 37 25
135 46 71 16 143 30 159 33 17 2 37 7 45 10 50 19 314 82 322 77 5 -3 8 -41 7
-84 -2 -85 3 -100 32 -100 18 0 19 -8 19 -137 0 -76 3 -289 7 -474 l6 -337
-21 -6 c-17 -6 -22 -15 -22 -42 0 -49 -25 -93 -58 -100 -15 -3 -75 -23 -134
-45 -59 -21 -111 -39 -115 -39 -25 0 -214 -78 -205 -84 6 -4 29 -3 49 3 21 5
65 12 98 16 33 3 128 15 210 27 109 15 174 19 240 14 518 -37 691 -47 751 -47
76 0 50 -7 614 175 129 42 241 76 248 76 6 0 12 3 12 8 0 4 39 16 86 27 48 11
94 25 102 31 18 13 22 119 9 187 -7 32 -12 37 -35 37 l-27 0 -3 183 c-1 100
-6 308 -11 462 -7 246 -6 284 8 313 14 30 14 37 -2 81 -9 27 -17 56 -17 64 0
12 -6 14 -29 7 -16 -4 -48 -4 -72 0 -24 5 -109 13 -189 20 -214 16 -272 25
-308 47 l-33 20 73 15 c97 20 185 21 299 4z m-340 -78 c33 -24 89 -34 253 -44
l110 -7 -70 -22 c-38 -12 -105 -30 -149 -39 -44 -10 -152 -36 -240 -58 -279
-71 -276 -70 -440 -64 -82 3 -220 6 -305 6 -107 0 -151 3 -143 11 5 5 21 10
34 11 42 0 123 20 147 34 12 8 22 23 22 34 0 27 37 40 112 40 34 0 84 7 112
15 28 8 96 21 151 30 55 9 123 25 150 36 28 10 71 19 95 19 25 0 52 5 60 10
25 16 69 11 101 -12z m570 -97 c14 -46 6 -86 -18 -96 -10 -4 -38 -10 -63 -15
-25 -5 -70 -16 -100 -25 -30 -9 -76 -20 -101 -25 -26 -5 -77 -18 -114 -29 -37
-12 -76 -21 -87 -21 -11 0 -34 -6 -51 -14 -18 -8 -72 -22 -121 -31 -49 -9
-102 -23 -117 -31 -16 -8 -41 -14 -58 -14 -16 0 -33 -5 -37 -11 -9 -15 -565
-3 -831 17 -93 7 -92 5 -77 96 l6 37 257 -5 c141 -2 265 -7 277 -9 41 -9 310
-6 339 4 17 5 84 21 150 36 66 15 147 35 180 45 33 10 132 35 220 55 88 21
180 43 205 51 45 13 80 20 112 23 12 1 21 -11 29 -38z m-5306 -44 c66 -13 134
-31 152 -40 18 -10 41 -17 51 -17 10 0 27 -9 36 -19 17 -18 16 -28 -14 -208
-97 -588 -133 -796 -151 -865 -10 -42 -19 -87 -19 -101 0 -13 -7 -30 -15 -37
-16 -13 -24 -12 -132 19 -54 16 -103 21 -190 22 -161 1 -168 4 -167 60 1 42
53 348 73 434 6 22 19 90 30 150 11 61 36 184 56 275 35 161 49 230 62 319 l6
43 51 -6 c28 -3 105 -16 171 -29z m-2230 -31 c32 -21 67 -26 197 -27 116 0
155 -9 142 -30 -3 -5 -13 -9 -23 -9 -10 0 -24 -6 -30 -14 -9 -11 -6 -16 17
-24 24 -8 31 -20 45 -69 10 -33 17 -68 17 -79 0 -10 9 -32 21 -49 l20 -30 -6
45 c-4 25 -16 70 -26 100 -10 30 -19 61 -19 69 0 36 31 -18 65 -114 20 -55 43
-110 51 -123 39 -59 48 -163 29 -325 -7 -64 -9 -68 -40 -81 -60 -25 -118 -75
-137 -118 -11 -23 -23 -45 -27 -48 -5 -3 -18 -23 -29 -46 -19 -37 -24 -40 -51
-36 -37 5 -39 -3 -9 -28 l23 -18 -38 -22 c-20 -12 -37 -28 -37 -36 0 -8 -13
-32 -29 -54 l-28 -39 -7 61 c-12 115 -10 128 22 129 l27 1 -25 7 c-24 7 -26
14 -42 131 -9 69 -19 168 -21 221 -2 53 -8 103 -13 110 -15 25 -26 103 -29
205 -2 68 -10 121 -24 164 -12 35 -21 72 -21 83 0 19 1 19 18 4 22 -21 32 -21
32 -4 0 20 -40 55 -41 36 -1 -21 -17 22 -18 49 -1 25 15 28 44 8z m3065 -52
c0 -6 9 -23 20 -37 11 -14 20 -31 20 -39 0 -7 9 -24 20 -38 22 -28 25 -40 10
-40 -6 0 -16 12 -23 28 -6 15 -29 54 -49 86 -21 33 -38 71 -38 85 l0 26 20
-30 c11 -16 20 -35 20 -41z m-1940 15 c0 -9 -13 -92 -30 -185 -44 -254 -49
-287 -47 -308 2 -16 -7 -21 -43 -28 -136 -24 -211 -43 -265 -65 -93 -38 -149
-65 -166 -79 -24 -21 -11 75 57 421 19 94 34 185 34 202 0 57 6 58 243 58 193
0 217 -2 217 -16z m6394 -51 c3 -13 7 -140 11 -283 3 -143 8 -326 11 -406 8
-173 4 -196 -34 -205 -15 -3 -65 -18 -112 -34 -47 -15 -132 -42 -190 -60 -58
-18 -150 -47 -205 -65 -55 -18 -158 -52 -229 -75 l-129 -42 -151 7 c-151 6
-238 13 -244 20 -2 2 -5 216 -6 475 l-1 472 177 -4 178 -3 1 -115 c0 -63 0
-254 0 -425 0 -173 4 -319 9 -330 6 -13 9 144 7 427 l-2 446 48 6 c44 6 154
34 287 71 30 9 80 21 109 26 30 6 104 26 164 45 60 19 121 34 136 34 15 0 31
3 35 8 8 8 82 30 108 31 11 1 19 -8 22 -21z m-1454 -187 c57 -5 65 -8 62 -26
-1 -11 -2 -224 -2 -474 l1 -454 -93 9 c-51 4 -120 8 -153 8 l-60 1 -3 473 -2
472 92 -1 c51 -1 122 -4 158 -8z m134 -7 c9 -3 13 -11 9 -18 -4 -6 -8 -216 -8
-466 0 -423 -1 -455 -17 -458 -16 -3 -18 27 -20 465 -2 257 -2 471 0 476 4 9
15 9 36 1z m4449 -50 c43 -23 140 -118 173 -169 29 -44 77 -203 105 -350 10
-47 14 -146 14 -305 -1 -216 -3 -244 -27 -350 -26 -115 -43 -172 -59 -200 -5
-8 -17 -30 -26 -47 -9 -18 -25 -33 -34 -33 -10 0 -20 -4 -23 -9 -8 -13 -138
-51 -173 -51 -52 0 -100 20 -146 61 -40 34 -50 52 -72 120 -69 219 -91 560
-54 849 6 47 14 117 19 155 9 77 45 201 65 225 7 8 10 20 8 27 -6 17 29 62 49
63 9 0 20 4 23 10 7 11 59 28 91 29 12 1 42 -10 67 -25z m-3028 -740 c-3 -73
-8 -78 -70 -94 -22 -6 -51 -15 -65 -21 -31 -13 -150 -52 -335 -109 -77 -23
-205 -64 -285 -90 -80 -26 -164 -54 -188 -61 -34 -10 -112 -9 -429 5 -213 9
-406 22 -430 28 l-43 10 6 57 c9 96 11 101 42 101 15 0 56 -5 92 -10 36 -6
130 -12 210 -16 80 -3 170 -9 200 -14 30 -5 116 -12 190 -15 l135 -6 210 66
c116 37 266 85 335 106 69 22 146 46 172 53 25 8 52 17 58 21 11 7 174 53 192
54 4 1 5 -29 3 -65z m-5575 -211 c69 -8 133 -20 144 -25 23 -12 19 -57 -19
-223 -14 -60 -34 -164 -44 -230 -24 -147 -55 -290 -80 -370 -14 -45 -26 -65
-51 -82 -34 -24 -79 -30 -96 -13 -5 5 -39 14 -76 19 -87 12 -108 24 -108 61 0
16 9 89 19 162 10 73 24 185 31 248 7 63 18 136 25 161 8 29 10 51 3 62 -5 10
-5 24 0 34 11 20 29 104 37 174 l6 47 42 -5 c23 -2 98 -11 167 -20z m6005 7
c11 -18 -24 -70 -47 -70 -22 0 -39 -4 -148 -39 -36 -11 -112 -32 -170 -46 -58
-14 -125 -32 -150 -40 -55 -18 -274 -84 -395 -119 -49 -14 -112 -33 -140 -41
-126 -38 -305 -89 -350 -100 -42 -11 -246 -67 -435 -120 -25 -7 -67 -18 -95
-25 -27 -7 -63 -18 -80 -25 -25 -11 -252 -79 -350 -105 -16 -4 -73 -20 -125
-35 -52 -14 -120 -33 -150 -41 -105 -28 -305 -85 -335 -96 -16 -5 -58 -17 -92
-26 -51 -13 -64 -13 -77 -3 -38 32 -7 62 89 86 39 9 75 20 80 25 6 4 24 10 40
13 35 6 199 50 265 71 25 8 106 31 180 51 74 20 162 45 195 55 33 10 94 28
135 39 346 95 447 124 462 132 10 5 25 9 35 9 9 0 85 20 167 44 198 59 488
142 601 172 50 13 113 31 140 39 103 29 161 45 205 54 25 6 65 17 90 26 49 18
138 43 265 75 44 11 98 27 120 35 48 17 62 18 70 5z m-6451 -54 c38 -14 78
-35 90 -46 12 -11 33 -31 49 -44 29 -27 37 -66 13 -66 -8 0 -27 10 -43 23 -15
13 -64 39 -108 58 -73 31 -88 34 -175 33 -83 -1 -105 -5 -174 -33 -131 -52
-205 -117 -293 -254 -89 -137 -126 -253 -164 -507 -17 -108 -19 -160 -14 -260
7 -126 23 -245 38 -267 4 -7 16 -45 27 -86 19 -72 57 -169 86 -217 8 -14 26
-49 40 -78 35 -77 184 -228 266 -270 79 -40 186 -64 253 -55 84 10 201 76 280
158 114 118 242 349 280 505 7 30 18 73 24 95 6 22 11 67 11 100 0 33 9 101
19 150 l17 90 6 -50 c8 -68 -7 -317 -21 -343 -6 -11 -11 -32 -11 -46 0 -39
-25 -125 -61 -212 -52 -125 -146 -303 -176 -333 -16 -16 -36 -40 -46 -54 -9
-14 -23 -24 -30 -21 -7 2 -26 -9 -42 -26 -43 -45 -166 -83 -275 -84 -95 -1
-202 19 -240 44 -14 9 -65 38 -114 63 -106 55 -117 65 -167 139 -34 53 -54 87
-133 231 -36 66 -94 271 -111 396 -36 255 -9 571 70 806 33 100 119 244 173
293 107 95 241 170 347 192 76 17 233 4 309 -24z m4 -131 c84 -39 152 -92 152
-117 0 -10 -4 -18 -10 -18 -5 0 -10 4 -10 9 0 13 -115 99 -148 113 -44 17
-179 10 -261 -12 -130 -36 -145 -41 -181 -64 -19 -13 -48 -31 -65 -41 l-30
-19 30 33 c41 45 159 122 220 144 80 29 209 17 303 -28z m14 -92 c23 -15 55
-50 72 -78 28 -46 31 -57 30 -131 -1 -44 -7 -105 -13 -135 -6 -30 -12 -103
-14 -162 l-2 -108 -95 8 c-205 18 -286 0 -303 -67 -12 -46 -3 -184 14 -234 24
-68 50 -76 241 -77 90 0 196 3 235 6 65 7 72 6 82 -13 14 -26 14 -75 1 -88 -5
-5 -23 -54 -40 -109 -63 -206 -158 -363 -270 -447 -38 -29 -172 -78 -211 -78
-70 1 -157 54 -257 159 -79 83 -95 107 -139 211 -112 263 -144 499 -94 685 12
44 26 98 31 120 29 138 142 373 197 409 18 11 34 28 36 36 3 14 100 67 162 90
98 37 112 39 213 35 70 -3 89 -8 124 -32z m1863 -483 c88 -6 225 -17 305 -26
80 -9 199 -19 265 -24 66 -5 176 -16 245 -24 110 -13 194 -21 463 -43 l67 -6
0 -39 0 -40 -37 6 c-21 3 -101 10 -178 16 -77 6 -203 17 -280 25 -77 8 -210
19 -295 25 -85 6 -162 13 -170 15 -14 4 -334 30 -518 42 l-83 6 -14 34 c-22
53 -20 56 28 49 23 -3 114 -10 202 -16z m-1860 -181 c61 -7 116 -16 123 -22 7
-6 12 -35 12 -77 0 -37 6 -83 14 -102 8 -19 12 -39 8 -45 -6 -9 -283 -20 -358
-15 -58 5 -87 100 -62 206 10 47 16 56 38 59 51 8 118 7 225 -4z m419 -55 c17
-44 2 -63 -38 -48 -20 8 -20 23 1 46 20 22 29 23 37 2z m-151 -34 c-6 -116
-16 -160 -33 -160 -36 0 -63 107 -44 178 6 19 12 23 43 20 34 -3 36 -5 34 -38z
m91 -55 c23 -35 20 -47 -18 -77 -33 -27 -35 -27 -41 -8 -11 36 12 110 35 110
4 0 15 -11 24 -25z m49 -189 c-20 -134 -41 -230 -60 -277 -33 -81 -128 -249
-140 -249 -7 0 -13 -5 -13 -11 0 -10 -15 -29 -96 -120 -29 -33 -74 -69 -85
-69 -5 0 -27 -11 -48 -24 -21 -14 -66 -30 -99 -37 -52 -11 -68 -10 -109 2
l-48 16 63 11 c34 6 72 18 84 27 13 8 30 15 40 15 18 0 160 122 167 143 2 7
21 30 41 53 20 22 49 60 63 85 26 46 77 174 95 244 6 22 15 59 21 81 6 23 11
51 11 63 0 16 6 21 28 22 27 0 27 0 4 10 -26 10 -27 47 -2 59 46 21 56 30 64
59 l9 33 11 -28 c9 -20 8 -48 -1 -108z"/>
<path d="M6040 15131 c-7 -2 1 -16 18 -35 l31 -31 2 -135 c2 -121 0 -135 -15
-138 -9 -2 -21 -15 -27 -28 -7 -21 -15 -25 -41 -22 -30 3 -36 10 -71 78 -58
117 -58 140 -1 253 18 37 18 44 -5 52 -27 8 -51 -4 -51 -26 0 -11 -7 -36 -16
-57 -15 -35 -16 -36 -30 -18 -8 11 -14 35 -14 53 l0 33 -65 0 c-72 0 -86 -16
-40 -46 27 -18 81 -118 91 -170 5 -27 1 -41 -18 -67 -31 -39 -58 -92 -58 -109
0 -7 11 -18 25 -25 14 -6 25 -7 25 -2 0 6 15 16 33 24 20 9 25 14 14 15 -28 0
-20 65 8 65 16 0 20 -7 21 -35 0 -33 2 -35 45 -42 25 -5 56 -4 73 2 16 5 69
10 117 10 48 0 100 5 116 11 l28 10 -34 28 -33 27 7 157 c4 86 12 157 17 157
5 0 6 5 3 10 -6 9 -126 10 -155 1z"/>
<path d="M5135 15065 c-12 -10 -35 -67 -35 -88 0 -6 8 -3 18 6 25 23 69 22 75
0 7 -27 0 -254 -8 -290 l-7 -33 62 3 62 2 -7 35 c-4 19 -9 95 -12 168 l-4 132
28 11 c22 8 30 7 39 -5 6 -9 14 -16 17 -16 9 0 -4 62 -15 77 -11 14 -195 13
-213 -2z"/>
<path d="M5484 15044 c-10 -14 -21 -44 -25 -67 -4 -23 -11 -55 -17 -72 -44
-128 -55 -165 -59 -199 -5 -34 -3 -38 12 -33 9 4 29 7 45 7 26 0 29 4 32 38 3
35 5 37 38 37 31 0 35 -3 40 -30 4 -26 10 -30 41 -33 51 -4 70 20 40 51 -11
13 -21 32 -21 43 0 11 -8 38 -18 60 -15 32 -40 109 -68 212 -5 20 -22 14 -40
-14z m36 -194 c0 -11 -4 -20 -10 -20 -5 0 -10 9 -10 20 0 11 5 20 10 20 6 0
10 -9 10 -20z"/>
<path d="M4370 10344 c0 -9 5 -14 12 -12 18 6 21 28 4 28 -9 0 -16 -7 -16 -16z"/>
<path d="M4400 10300 c0 -11 -3 -20 -7 -20 -19 -1 -33 -18 -27 -33 10 -26 31
-20 37 11 3 15 9 35 12 45 4 10 3 17 -4 17 -6 0 -11 -9 -11 -20z"/>
<path d="M4180 10226 c0 -8 5 -18 10 -21 6 -3 10 1 10 9 0 8 -4 18 -10 21 -5
3 -10 -1 -10 -9z"/>
<path d="M3762 10134 c2 -15 9 -29 16 -32 10 -3 13 4 10 24 -2 15 -9 29 -16
32 -10 3 -13 -4 -10 -24z"/>
<path d="M3647 10033 c-12 -12 -7 -43 6 -43 14 0 47 31 47 43 0 9 -45 9 -53 0z"/>
<path d="M4210 10019 c0 -24 23 -21 28 4 2 10 -3 17 -12 17 -10 0 -16 -9 -16
-21z"/>
<path d="M3733 9989 c-7 -7 -13 -22 -13 -33 0 -19 1 -19 16 -4 9 8 14 23 12
32 -2 14 -5 15 -15 5z"/>
<path d="M3696 9884 c-9 -23 -7 -44 3 -44 5 0 11 14 13 30 5 32 -6 41 -16 14z"/>
<path d="M4190 9808 c0 -13 4 -30 9 -37 8 -12 11 -9 16 11 7 28 1 48 -16 48
-5 0 -9 -10 -9 -22z"/>
<path d="M3731 9755 c-1 -16 6 -43 15 -60 19 -35 22 -88 10 -162 -9 -57 2 -71
22 -28 16 35 14 101 -3 150 -8 22 -15 47 -15 55 -1 8 -7 29 -15 45 l-13 30 -1
-30z"/>
<path d="M3623 9704 c4 -22 13 -59 20 -84 l14 -45 13 43 c12 38 11 46 -6 79
-28 53 -49 56 -41 7z"/>
<path d="M4230 9566 c0 -14 5 -28 10 -31 15 -9 12 -45 -5 -51 -16 -7 -21 -54
-5 -54 5 0 13 -15 18 -32 7 -28 13 -34 40 -36 40 -4 41 13 2 33 -36 19 -40 59
-10 98 27 34 26 40 -15 71 l-35 27 0 -25z"/>
<path d="M3485 9394 c-11 -11 -13 -20 -6 -27 12 -12 41 8 41 29 0 19 -15 18
-35 -2z"/>
<path d="M4165 9391 c-8 -15 3 -31 21 -31 9 0 14 7 12 17 -4 20 -24 28 -33 14z"/>
<path d="M4378 9285 c3 -56 0 -87 -13 -120 -17 -47 -14 -82 6 -69 9 5 10 -20
5 -101 -5 -75 -4 -105 3 -100 6 3 11 23 11 43 0 21 6 62 13 92 23 100 7 330
-23 330 -4 0 -5 -34 -2 -75z m19 -147 c-3 -7 -5 -2 -5 12 0 14 2 19 5 13 2 -7
2 -19 0 -25z"/>
<path d="M3409 9235 c-1 -3 -3 -29 -4 -57 -3 -59 2 -88 15 -88 13 0 22 52 11
63 -19 19 -12 46 14 53 36 9 32 34 -5 34 -16 0 -31 -2 -31 -5z"/>
<path d="M3480 9126 c0 -8 5 -18 10 -21 6 -3 10 1 10 9 0 8 -4 18 -10 21 -5 3
-10 -1 -10 -9z"/>
<path d="M3413 9029 c-8 -8 -9 -19 -1 -38 5 -14 13 -43 16 -64 4 -21 12 -37
17 -35 6 2 8 8 6 13 -2 6 -8 37 -13 69 -9 68 -10 70 -25 55z"/>
<path d="M4215 9029 c-10 -15 4 -61 15 -54 13 8 13 65 1 65 -6 0 -13 -5 -16
-11z"/>
<path d="M3485 9017 c-4 -10 -5 -21 -1 -24 10 -10 18 4 13 24 -4 17 -4 17 -12
0z"/>
<path d="M4290 8980 c-8 -49 -6 -91 5 -100 36 -30 49 41 15 81 -10 13 -20 22
-20 19z"/>
<path d="M4165 8870 c-10 -17 20 -44 40 -36 9 3 15 14 13 23 -4 21 -43 30 -53
13z"/>
<path d="M3895 8711 c-10 -17 4 -31 31 -31 19 0 25 5 22 18 -4 19 -43 29 -53
13z"/>
<path d="M13460 12018 c-31 -37 -87 -114 -98 -134 -17 -32 -83 -275 -99 -359
-8 -44 -18 -118 -23 -165 -5 -47 -11 -96 -14 -110 -3 -14 -10 -119 -15 -235
-9 -200 -22 -297 -67 -495 -8 -36 -18 -96 -23 -135 -5 -38 -12 -78 -16 -87 -4
-10 -5 -18 -2 -18 10 0 48 92 67 165 57 211 86 408 95 660 5 136 19 248 50
400 3 17 12 65 20 108 23 120 110 332 141 344 8 3 13 12 10 19 -3 8 -1 25 4
39 12 32 -4 33 -30 3z"/>
<path d="M12263 11982 c-40 -32 -53 -51 -76 -113 -15 -41 -38 -96 -52 -124
-13 -27 -26 -61 -29 -75 -2 -14 -9 -50 -15 -80 -38 -187 -59 -366 -60 -515 -2
-158 -30 -427 -51 -495 -6 -19 -17 -71 -25 -115 -44 -242 18 -100 81 185 22
96 34 193 40 300 13 277 26 407 50 525 14 72 29 141 31 155 9 47 74 243 93
279 10 20 30 46 44 58 22 19 36 53 22 53 -2 0 -26 -17 -53 -38z"/>
<path d="M12818 11940 c-128 -166 -195 -433 -223 -884 -17 -279 -24 -340 -71
-564 -19 -91 -34 -179 -34 -196 0 -30 0 -30 15 -9 13 18 27 65 75 238 4 17 13
44 18 60 11 33 32 238 33 325 2 89 29 401 39 450 6 25 21 100 35 167 14 67 31
136 40 155 8 18 28 70 45 115 30 78 58 117 111 155 24 17 24 17 -20 15 -33 -1
-47 -7 -63 -27z"/>
<path d="M14701 11209 c-31 -16 -62 -49 -46 -49 14 0 105 53 105 61 0 13 -20
9 -59 -12z"/>
<path d="M14295 10940 c-8 -13 3 -50 15 -50 9 0 20 25 20 46 0 16 -26 19 -35
4z"/>
<path d="M14058 10883 c-10 -2 -18 -9 -18 -14 0 -15 43 -7 48 9 4 12 0 13 -30
5z"/>
<path d="M14115 10870 c-3 -5 -1 -10 4 -10 6 0 11 -4 11 -10 0 -5 -13 -10 -29
-10 -35 0 -62 -27 -40 -41 8 -5 25 -9 39 -9 14 0 39 -9 55 -20 32 -21 60 -27
50 -10 -4 6 -23 18 -43 28 -47 23 -51 40 -12 53 17 7 28 15 23 19 -15 14 -51
21 -58 10z"/>
<path d="M13885 10781 c-6 -11 9 -23 19 -14 9 9 7 23 -3 23 -6 0 -12 -4 -16
-9z"/>
<path d="M13952 10753 c-12 -19 -21 -37 -19 -40 2 -2 12 8 21 22 9 14 23 25
31 25 8 0 15 7 15 15 0 26 -24 15 -48 -22z"/>
<path d="M14005 10723 c-9 -36 -43 -73 -68 -73 -16 0 -18 5 -14 28 5 26 4 26
-29 -12 -19 -22 -34 -43 -34 -48 0 -11 18 -10 25 2 9 14 24 3 35 -26 12 -31
28 -30 40 2 9 23 14 25 44 20 18 -4 46 -1 62 5 16 6 43 11 59 10 25 -1 32 4
42 29 10 27 9 30 -8 30 -11 0 -30 -11 -43 -24 -21 -24 -24 -24 -62 -11 -40 14
-42 19 -29 68 4 16 3 27 -3 27 -5 0 -13 -12 -17 -27z"/>
<path d="M13862 10710 c0 -14 2 -19 5 -12 2 6 2 18 0 25 -3 6 -5 1 -5 -13z"/>
<path d="M13820 10609 c0 -5 5 -7 10 -4 6 3 10 8 10 11 0 2 -4 4 -10 4 -5 0
-10 -5 -10 -11z"/>
<path d="M14490 10561 c0 -14 27 -21 80 -21 59 0 88 9 68 21 -18 12 -148 11
-148 0z"/>
<path d="M14111 10247 c-25 -7 -46 -18 -49 -24 -5 -19 19 -16 72 7 70 31 60
39 -23 17z"/>
<path d="M14028 10203 c7 -3 16 -2 19 1 4 3 -2 6 -13 5 -11 0 -14 -3 -6 -6z"/>
<path d="M13490 10625 c-7 -9 -8 -15 -2 -15 5 0 12 7 16 15 3 8 4 15 2 15 -2
0 -9 -7 -16 -15z"/>
<path d="M13455 10579 c-4 -6 -5 -12 -2 -15 2 -3 7 2 10 11 7 17 1 20 -8 4z"/>
<path d="M13536 10423 c-13 -21 -22 -40 -21 -41 9 -10 43 12 53 34 26 56 3 61
-32 7z"/>
<path d="M10622 10583 c2 -11 24 -26 58 -40 61 -24 74 -16 43 26 -15 20 -30
27 -62 29 -37 3 -42 1 -39 -15z"/>
<path d="M11191 10554 c-31 -26 -40 -57 -20 -69 15 -10 49 24 42 42 -4 9 1 21
11 28 10 8 13 16 7 19 -5 3 -23 -6 -40 -20z"/>
<path d="M11252 10552 l-34 -28 26 -12 c16 -7 26 -8 26 -2 0 6 11 20 25 32 51
45 10 54 -43 10z"/>
<path d="M10728 10492 c-7 -10 -30 -22 -52 -25 -72 -12 -59 -34 23 -39 l54 -3
3 37 c5 42 -9 57 -28 30z"/>
<path d="M11300 10445 c0 -8 5 -15 10 -15 6 0 10 7 10 15 0 8 -4 15 -10 15 -5
0 -10 -7 -10 -15z"/>
<path d="M10348 10332 c-10 -20 -14 -40 -9 -45 5 -5 47 -10 95 -12 76 -4 87
-2 96 15 14 26 13 30 -10 30 -10 0 -24 9 -30 20 -11 20 -40 28 -40 10 0 -14
-37 -31 -54 -24 -9 3 -16 15 -16 25 0 30 -13 22 -32 -19z"/>
<path d="M7044 10325 c26 -19 42 -19 26 0 -7 8 -20 15 -29 15 -13 -1 -13 -3 3
-15z"/>
<path d="M7828 10319 c-24 -13 -23 -29 2 -29 13 0 20 7 20 20 0 23 1 23 -22 9z"/>
<path d="M7210 10300 c0 -5 9 -10 20 -10 11 0 20 5 20 10 0 6 -9 10 -20 10
-11 0 -20 -4 -20 -10z"/>
<path d="M7332 10298 c-14 -14 -16 -38 -4 -38 10 0 42 33 42 43 0 11 -25 8
-38 -5z"/>
<path d="M6820 10266 c0 -18 27 -39 40 -31 5 3 10 15 10 26 0 14 -7 19 -25 19
-15 0 -25 -6 -25 -14z"/>
<path d="M7730 10269 c0 -12 25 -22 41 -17 6 2 0 9 -15 16 -16 7 -26 8 -26 1z"/>
<path d="M7082 10221 c-19 -20 -37 -42 -40 -48 -4 -5 -32 -16 -61 -23 -30 -7
-88 -28 -128 -46 -58 -27 -76 -41 -93 -71 -12 -21 -39 -67 -60 -102 -30 -49
-40 -79 -46 -130 -5 -36 -9 -69 -10 -73 -1 -5 -2 -38 -3 -75 -1 -61 -2 -65
-16 -47 -14 18 -14 18 -15 -6 0 -14 9 -42 20 -63 11 -20 20 -43 20 -51 0 -7
13 -37 29 -67 15 -30 26 -61 24 -69 -4 -12 -2 -12 5 -2 6 10 16 3 36 -27 22
-31 50 -51 124 -87 53 -27 106 -48 117 -49 71 -4 72 -4 51 -20 -11 -8 -17 -18
-13 -21 4 -4 14 -1 23 7 14 11 20 9 45 -21 l28 -35 1 27 0 26 80 -1 c62 -2 79
-5 75 -15 -3 -8 -5 -18 -5 -22 0 -5 -12 -16 -27 -24 -25 -13 -26 -15 -9 -22
12 -5 21 -2 28 9 14 25 47 21 60 -8 12 -27 23 -31 33 -14 4 6 -2 19 -14 30
-12 11 -21 29 -21 40 0 18 4 20 31 14 100 -22 442 71 520 141 8 8 20 14 25 14
6 0 24 15 40 33 16 17 60 58 97 90 116 100 197 245 197 349 0 65 -20 143 -51
200 -26 45 -92 101 -174 144 -27 15 -66 35 -85 46 -19 10 -42 18 -52 18 -20 0
-32 16 -18 25 17 10 11 35 -7 35 -10 0 -26 -7 -35 -14 -15 -11 -29 -11 -80 0
-173 35 -245 45 -268 36 -14 -5 -66 -12 -116 -16 -103 -8 -170 -25 -211 -55
-15 -10 -39 -22 -53 -26 -27 -7 -25 -4 73 77 l32 27 -35 0 c-28 0 -42 -8 -68
-38z m558 -66 c108 -17 152 -29 272 -76 142 -54 189 -88 227 -161 64 -125 32
-286 -80 -406 -26 -27 -60 -58 -77 -68 -16 -10 -63 -41 -103 -68 -78 -53 -208
-117 -245 -121 -13 -1 -30 -7 -37 -13 -39 -33 -306 -63 -327 -37 -8 9 -2 16
20 25 17 7 52 36 79 66 110 120 162 366 111 523 -43 129 -108 219 -205 283
-36 23 -65 46 -65 50 0 18 319 21 430 3z m-398 -172 c57 -56 99 -131 97 -175
0 -18 4 -62 11 -98 6 -36 9 -90 5 -120 -8 -75 -69 -197 -109 -220 -17 -10 -39
-27 -49 -37 -16 -15 -34 -18 -127 -17 -95 2 -113 5 -136 23 -15 12 -32 21 -39
21 -23 0 -82 76 -103 131 -40 109 -37 218 12 388 34 119 97 170 221 181 91 8
153 -14 217 -77z m145 -79 c35 -65 42 -89 43 -135 0 -30 5 -82 11 -114 22
-119 -46 -260 -188 -387 -14 -13 -36 -18 -76 -18 -72 0 -74 16 -3 24 48 6 61
14 109 60 59 57 87 104 123 209 21 61 22 71 9 84 -8 8 -15 15 -15 16 0 1 -5
43 -10 92 -14 130 -19 154 -47 208 -42 84 -2 48 44 -39z m-2 -326 l-17 -23 6
25 c3 14 6 34 7 45 0 19 1 19 11 -2 8 -16 6 -27 -7 -45z m-616 -152 c11 -33
19 -62 16 -64 -5 -5 -6 -4 -35 83 -11 33 -16 55 -11 50 5 -6 19 -37 30 -69z
m128 -120 c26 -12 64 -30 83 -39 35 -16 35 -16 7 -16 -15 -1 -47 9 -70 21 -23
12 -48 24 -56 28 -14 6 -28 30 -18 30 3 0 27 -11 54 -24z m183 -46 c-20 -13
-40 -13 -40 0 0 6 12 10 28 10 21 0 24 -2 12 -10z"/>
<path d="M6958 9996 c-96 -36 -92 -50 5 -17 52 18 60 18 118 5 61 -14 169 -68
169 -83 0 -4 9 -19 21 -32 11 -13 25 -31 29 -39 5 -8 12 -12 16 -7 12 11 -88
118 -141 151 -34 21 -59 29 -87 28 -22 -1 -47 2 -56 6 -11 5 -38 1 -74 -12z"/>
<path d="M6992 10227 c-7 -8 -38 -20 -69 -27 -111 -24 -132 -31 -138 -40 -10
-17 33 -11 119 14 44 14 92 26 106 28 14 2 25 10 25 18 0 20 -29 24 -43 7z"/>
<path d="M6737 10143 c-4 -3 -7 -12 -7 -19 0 -17 27 -7 34 12 5 14 -15 20 -27
7z"/>
<path d="M6002 10075 c0 -11 3 -29 8 -40 11 -25 11 1 0 35 -6 20 -8 21 -8 5z"/>
<path d="M5932 10040 c0 -14 2 -19 5 -12 2 6 2 18 0 25 -3 6 -5 1 -5 -13z"/>
<path d="M6613 9989 c-6 -8 -14 -31 -18 -51 -6 -30 -4 -38 8 -38 21 0 42 56
30 81 -7 17 -11 19 -20 8z"/>
<path d="M5981 9985 c1 -19 18 -51 18 -35 0 8 -4 22 -9 30 -5 8 -9 11 -9 5z"/>
<path d="M6410 9983 c0 -5 7 -18 15 -29 15 -18 15 -18 13 5 -3 23 -28 44 -28
24z"/>
<path d="M6000 9904 c0 -10 5 -26 10 -34 8 -11 9 -7 4 15 -8 37 -14 45 -14 19z"/>
<path d="M5892 9901 c-10 -6 -10 -14 -3 -34 12 -30 31 -36 30 -9 -1 32 -13 52
-27 43z"/>
<path d="M6446 9834 c-3 -8 -3 -33 0 -54 6 -39 -11 -110 -27 -110 -5 0 -9 -9
-9 -20 0 -32 16 -23 39 23 29 55 41 177 19 177 -9 0 -19 -7 -22 -16z"/>
<path d="M5925 9713 c4 -38 9 -131 10 -208 6 -214 23 -177 22 47 0 186 -5 228
-29 228 -7 0 -9 -20 -3 -67z"/>
<path d="M6611 9714 c0 -11 3 -14 6 -6 3 7 2 16 -1 19 -3 4 -6 -2 -5 -13z"/>
<path d="M6506 9642 c-31 -46 -33 -73 -6 -97 20 -18 20 -17 20 32 0 33 5 55
15 63 16 13 20 40 6 40 -4 0 -20 -17 -35 -38z"/>
<path d="M6520 9452 c0 -32 -13 -48 -44 -53 -24 -5 -32 -25 -12 -32 8 -3 33 9
55 26 32 25 41 38 39 57 -2 14 -10 26 -20 28 -14 3 -18 -3 -18 -26z"/>
<path d="M6617 9418 c-4 -28 -2 -45 6 -50 8 -5 13 5 15 34 4 56 -14 71 -21 16z"/>
<path d="M5820 9400 c0 -17 30 -85 39 -88 16 -5 14 35 -2 45 -8 4 -19 17 -25
28 -6 11 -11 18 -12 15z"/>
<path d="M6012 9340 c0 -14 2 -19 5 -12 2 6 2 18 0 25 -3 6 -5 1 -5 -13z"/>
<path d="M5978 9223 c-2 -26 2 -62 9 -79 6 -17 15 -61 19 -98 4 -36 13 -74 21
-83 13 -16 13 -12 8 32 -3 28 -12 70 -20 95 -8 25 -17 73 -19 108 -5 78 -13
89 -18 25z"/>
<path d="M6792 9228 c7 -20 48 -23 48 -4 0 11 -9 16 -26 16 -16 0 -24 -5 -22
-12z"/>
<path d="M7894 9218 c3 -13 6 -29 6 -35 0 -7 5 -13 10 -13 11 0 13 30 4 54 -9
25 -27 19 -20 -6z"/>
<path d="M7748 9172 c-38 -13 -68 -28 -68 -33 0 -16 32 -9 84 19 64 34 60 31
55 35 -2 2 -34 -8 -71 -21z"/>
<path d="M6966 9164 c-4 -10 -13 -14 -24 -10 -14 5 -14 3 2 -9 29 -22 53 -19
52 7 -1 26 -21 35 -30 12z"/>
<path d="M6830 9131 c0 -16 32 -34 73 -42 23 -4 60 -12 82 -18 96 -24 98 -24
93 -10 -3 9 -26 16 -65 19 -33 3 -67 11 -76 18 -21 17 -107 44 -107 33z"/>
<path d="M7893 9133 c-19 -7 -16 -47 6 -71 19 -23 37 -170 22 -185 -5 -5 3
-47 17 -95 13 -48 30 -109 38 -137 l13 -50 -5 45 c-3 25 -12 70 -20 100 -13
52 -36 280 -35 346 1 33 -16 54 -36 47z"/>
<path d="M6736 9113 c-11 -11 -6 -23 9 -23 8 0 15 4 15 9 0 13 -16 22 -24 14z"/>
<path d="M7790 9111 c0 -10 25 -21 48 -21 15 1 14 3 -2 15 -22 17 -46 20 -46
6z"/>
<path d="M7141 9081 c-13 -10 -21 -23 -17 -30 9 -14 26 -14 26 1 0 6 7 20 17
30 21 23 5 23 -26 -1z"/>
<path d="M7406 9092 c-7 -11 16 -22 46 -22 11 0 18 5 16 13 -5 15 -54 22 -62
9z"/>
<path d="M7602 9073 c4 -36 33 -39 33 -3 0 16 -6 26 -18 28 -15 3 -18 -2 -15
-25z"/>
<path d="M6790 9070 c-12 -8 -11 -10 8 -10 12 0 22 5 22 10 0 13 -11 13 -30 0z"/>
<path d="M6040 8905 c0 -16 5 -37 10 -45 7 -12 10 -8 10 15 0 17 -5 37 -10 45
-7 12 -10 8 -10 -15z"/>
<path d="M6370 8700 c0 -5 5 -10 10 -10 6 0 10 5 10 10 0 6 -4 10 -10 10 -5 0
-10 -4 -10 -10z"/>
<path d="M6260 8661 c0 -10 30 -24 37 -17 3 3 2 9 -2 15 -8 13 -35 15 -35 2z"/>
<path d="M6135 8610 c3 -5 19 -10 36 -10 16 0 29 5 29 10 0 6 -16 10 -36 10
-21 0 -33 -4 -29 -10z"/>
<path d="M6234 8545 c-8 -19 -5 -22 21 -27 14 -2 20 3 20 17 0 24 -33 33 -41
10z"/>
<path d="M7976 8345 c4 -38 8 -72 10 -74 9 -10 3 116 -6 129 -7 10 -8 -7 -4
-55z"/>
<path d="M6382 8393 c-10 -4 -10 -8 -1 -19 17 -21 51 -18 47 3 -3 18 -24 25
-46 16z"/>
<path d="M6632 8383 c2 -10 14 -20 27 -21 19 -3 22 0 17 13 -3 9 -6 19 -6 21
0 2 -9 4 -21 4 -14 0 -19 -5 -17 -17z"/>
<path d="M6455 8338 c-10 -25 -2 -53 15 -53 20 0 24 26 6 50 -13 18 -15 18
-21 3z"/>
<path d="M6570 8331 c0 -19 23 -35 34 -24 7 8 -12 43 -24 43 -6 0 -10 -9 -10
-19z"/>
<path d="M6682 8323 c4 -39 28 -42 28 -4 0 21 -5 31 -16 31 -11 0 -14 -8 -12
-27z"/>
<path d="M6650 8260 c0 -5 5 -10 11 -10 5 0 7 5 4 10 -3 6 -8 10 -11 10 -2 0
-4 -4 -4 -10z"/>
<path d="M6527 8253 c-4 -3 -7 -17 -7 -30 0 -19 5 -23 30 -23 22 0 30 5 30 18
0 31 -35 54 -53 35z"/>
<path d="M6680 8185 c0 -8 5 -15 10 -15 6 0 10 7 10 15 0 8 -4 15 -10 15 -5 0
-10 -7 -10 -15z"/>
<path d="M6606 8171 c-9 -15 4 -39 24 -44 19 -5 31 16 23 41 -5 14 -39 16 -47
3z"/>
<path d="M6660 8102 c0 -5 6 -17 14 -28 19 -25 31 -12 14 15 -13 21 -28 28
-28 13z"/>
<path d="M7000 7890 c0 -5 5 -10 10 -10 6 0 10 5 10 10 0 6 -4 10 -10 10 -5 0
-10 -4 -10 -10z"/>
<path d="M8014 7725 c0 -55 1 -76 3 -47 2 29 2 74 0 100 -2 26 -3 2 -3 -53z"/>
<path d="M6958 7640 c-1 -22 -2 -48 -2 -57 -1 -23 32 -29 40 -8 8 19 -15 105
-27 105 -5 0 -10 -18 -11 -40z"/>
<path d="M6860 7620 c0 -19 3 -21 12 -12 9 9 9 15 0 24 -9 9 -12 7 -12 -12z"/>
<path d="M8020 7518 c0 -13 7 -48 16 -78 12 -39 15 -86 13 -181 -2 -91 0 -132
9 -141 21 -21 16 212 -7 322 -20 95 -31 122 -31 78z"/>
<path d="M6941 7456 c-9 -10 -9 -16 -1 -21 17 -10 37 12 24 25 -8 8 -15 6 -23
-4z"/>
<path d="M6606 7304 c-9 -22 -7 -44 2 -44 12 0 32 46 25 54 -11 10 -21 7 -27
-10z"/>
<path d="M6696 7244 c-14 -37 -8 -44 37 -38 36 5 49 1 87 -25 45 -30 65 -29
58 5 -3 15 -11 18 -36 16 -22 -2 -49 6 -86 27 -46 27 -55 29 -60 15z"/>
<path d="M6686 7161 c-10 -16 23 -33 50 -27 15 4 23 11 18 15 -15 13 -62 22
-68 12z"/>
<path d="M8046 7022 c-5 -26 -4 -54 2 -70 6 -15 13 -36 15 -47 7 -32 6 45 -2
105 l-7 55 -8 -43z"/>
<path d="M8062 6845 c0 -16 2 -22 5 -12 2 9 2 23 0 30 -3 6 -5 -1 -5 -18z"/>
<path d="M6660 6830 c0 -11 7 -20 15 -20 8 0 15 6 15 14 0 8 -7 16 -15 20 -10
4 -15 -1 -15 -14z"/>
<path d="M6898 6653 c12 -2 32 -2 45 0 12 2 2 4 -23 4 -25 0 -35 -2 -22 -4z"/>
<path d="M7526 6608 c-30 -17 1 -28 82 -28 57 0 72 3 72 15 0 10 -11 15 -37
16 -21 1 -52 3 -68 4 -17 2 -39 -1 -49 -7z"/>
<path d="M7733 6609 c-56 -16 -40 -32 25 -24 74 9 83 17 32 27 -14 3 -40 2
-57 -3z"/>
<path d="M4401 9960 c-7 -23 -10 -44 -8 -47 7 -6 29 65 25 79 -2 6 -10 -8 -17
-32z"/>
<path d="M4372 9790 c0 -19 2 -27 5 -17 2 9 2 25 0 35 -3 9 -5 1 -5 -18z"/>
<path d="M4381 9724 c0 -11 3 -14 6 -6 3 7 2 16 -1 19 -3 4 -6 -2 -5 -13z"/>
<path d="M4406 9640 c11 -66 25 -110 34 -110 6 0 10 1 10 3 -1 1 -12 34 -26
72 -13 39 -21 54 -18 35z"/>
<path d="M3269 9598 c-19 -24 -45 -57 -57 -75 -12 -17 -46 -43 -75 -57 -53
-26 -48 -34 11 -17 34 10 99 71 139 133 36 54 24 66 -18 16z"/>
<path d="M14465 9649 c-8 -12 11 -29 33 -29 19 0 10 34 -10 38 -9 2 -19 -2
-23 -9z"/>
<path d="M14274 9616 c-17 -13 -15 -14 21 -6 22 5 51 10 65 13 15 2 6 5 -21 6
-26 0 -54 -5 -65 -13z"/>
<path d="M14141 9582 c-15 -29 -14 -52 3 -52 19 0 30 35 18 56 -9 16 -11 15
-21 -4z"/>
<path d="M13770 9500 c0 -5 7 -10 15 -10 8 0 15 5 15 10 0 6 -7 10 -15 10 -8
0 -15 -4 -15 -10z"/>
<path d="M13877 9466 c18 -8 54 -17 80 -21 48 -6 48 -6 20 10 -15 9 -51 18
-80 21 l-52 5 32 -15z"/>
<path d="M14033 9424 c16 -9 36 -12 45 -9 15 6 15 8 -3 15 -11 5 -31 9 -45 9
l-25 0 28 -15z"/>
<path d="M13748 9407 c-16 -13 -28 -26 -28 -30 0 -13 27 -7 40 8 13 16 84 16
109 1 7 -5 15 -5 18 -2 7 7 -76 46 -97 45 -8 0 -27 -10 -42 -22z"/>
<path d="M14640 9336 c0 -14 5 -28 10 -31 6 -4 10 7 10 24 0 17 -4 31 -10 31
-5 0 -10 -11 -10 -24z"/>
<path d="M13762 9308 c5 -14 88 -23 125 -13 45 11 12 25 -58 25 -52 0 -70 -3
-67 -12z"/>
<path d="M14046 9282 c-3 -5 -2 -21 3 -34 8 -20 10 -21 16 -6 8 20 -9 56 -19
40z"/>
<path d="M13885 9219 c-22 -5 -57 -12 -77 -15 -42 -7 -44 -10 -25 -28 11 -11
24 -10 73 5 32 10 74 19 92 19 22 0 32 4 30 13 -6 15 -41 18 -93 6z"/>
<path d="M14607 9193 c-4 -3 -7 -15 -7 -25 0 -26 24 -17 28 10 3 21 -8 29 -21
15z"/>
<path d="M13493 9043 c-21 -8 -15 -43 7 -43 15 0 20 7 20 25 0 25 -4 28 -27
18z"/>
<path d="M14644 9025 c-3 -8 -3 -19 0 -24 10 -16 36 -1 36 20 0 22 -28 26 -36
4z"/>
<path d="M14704 8980 c-24 -50 -33 -60 -55 -60 -14 0 -34 -6 -45 -14 -18 -14
-18 -15 8 -21 20 -5 35 -1 57 14 16 12 33 21 38 21 4 0 19 9 33 20 14 11 41
20 61 20 31 0 38 4 49 31 10 23 10 33 1 42 -9 9 -17 5 -34 -15 -43 -51 -96
-65 -72 -18 18 36 19 40 2 40 -8 0 -27 -27 -43 -60z"/>
<path d="M13524 8976 c-3 -14 -10 -26 -15 -26 -5 0 -16 -12 -26 -26 -16 -25
-16 -27 2 -40 22 -16 35 -4 35 35 0 14 8 33 17 43 12 14 14 21 5 30 -8 8 -13
4 -18 -16z"/>
<path d="M13450 8980 c0 -5 5 -10 10 -10 6 0 10 5 10 10 0 6 -4 10 -10 10 -5
0 -10 -4 -10 -10z"/>
<path d="M13371 8852 c-17 -31 -14 -82 5 -89 22 -8 34 15 27 52 -10 50 -19 61
-32 37z"/>
<path d="M13452 8779 c-7 -11 -11 -23 -9 -25 7 -7 29 24 25 36 -2 6 -9 1 -16
-11z"/>
<path d="M13415 8729 c-11 -17 1 -21 15 -4 8 9 8 15 2 15 -6 0 -14 -5 -17 -11z"/>
<path d="M13335 8699 c-10 -15 3 -25 16 -12 7 7 7 13 1 17 -6 3 -14 1 -17 -5z"/>
<path d="M9813 9308 c41 -103 40 -102 54 -82 17 24 17 44 -2 44 -9 0 -21 11
-27 25 -11 25 -35 36 -25 13z"/>
<path d="M10250 9226 c0 -22 13 -26 46 -17 l29 8 -28 12 c-37 15 -47 14 -47
-3z"/>
<path d="M10555 9230 c-3 -5 -22 -10 -41 -10 -19 0 -33 -4 -30 -8 7 -12 99 1
104 16 4 14 -24 16 -33 2z"/>
<path d="M10410 9210 c0 -5 9 -10 19 -10 11 0 23 5 26 10 4 6 -5 10 -19 10
-14 0 -26 -4 -26 -10z"/>
<path d="M9883 9175 c-3 -9 -3 -18 0 -21 9 -9 27 6 27 22 0 19 -19 18 -27 -1z"/>
<path d="M10697 9163 c-13 -12 -7 -41 8 -47 18 -6 30 16 21 39 -6 16 -18 19
-29 8z"/>
<path d="M10693 9075 c-3 -9 -3 -19 1 -22 8 -9 37 18 30 28 -8 14 -24 11 -31
-6z"/>
<path d="M9873 9053 c9 -11 17 -28 17 -38 0 -14 3 -16 11 -8 19 19 6 58 -21
62 -24 3 -24 2 -7 -16z"/>
<path d="M9790 8779 c0 -8 7 -24 15 -35 11 -14 14 -15 14 -4 0 8 -6 24 -14 34
-11 15 -15 16 -15 5z"/>
<path d="M9852 8700 c-18 -17 -39 -30 -47 -30 -8 0 -17 -12 -21 -27 -3 -16 -7
-33 -9 -39 -2 -6 10 -11 26 -11 25 0 29 4 29 28 0 19 9 34 29 49 16 11 33 20
38 19 19 -3 23 2 13 21 -14 26 -19 25 -58 -10z"/>
<path d="M9897 8638 c-4 -12 -17 -38 -29 -57 -13 -19 -30 -46 -39 -60 -8 -14
-25 -27 -37 -29 -14 -2 -30 -18 -42 -43 -27 -52 -7 -52 45 1 21 22 45 40 52
40 8 0 18 12 23 26 6 15 19 38 30 52 21 26 25 58 11 80 -6 11 -10 8 -14 -10z"/>
<path d="M9700 8555 c-19 -22 -6 -42 32 -48 18 -2 35 -3 37 -1 5 5 -39 64 -48
64 -5 0 -14 -7 -21 -15z"/>
<path d="M9641 8488 l-45 -20 27 -20 c15 -11 27 -26 27 -34 0 -8 6 -14 14 -14
10 0 15 16 18 55 1 30 3 55 3 55 0 -1 -20 -10 -44 -22z"/>
<path d="M9847 8426 c-6 -15 1 -26 15 -26 4 0 8 9 8 20 0 23 -15 27 -23 6z"/>
<path d="M10702 8373 c4 -32 38 -46 38 -16 0 20 -18 43 -33 43 -4 0 -7 -12 -5
-27z"/>
<path d="M10370 8380 c0 -5 5 -10 10 -10 6 0 10 5 10 10 0 6 -4 10 -10 10 -5
0 -10 -4 -10 -10z"/>
<path d="M9763 8335 c-3 -9 -4 -17 -2 -19 8 -7 49 13 49 24 0 16 -40 12 -47
-5z"/>
<path d="M9956 8311 c-30 -6 -49 -31 -23 -31 15 0 77 29 77 36 0 5 -16 4 -54
-5z"/>
<path d="M10488 8303 c-14 -2 -32 -11 -40 -20 -11 -14 -9 -15 22 -10 19 4 42
9 50 11 8 3 19 5 23 5 5 1 5 6 2 11 -6 10 -9 10 -57 3z"/>
<path d="M10310 8286 c0 -22 14 -27 44 -13 36 17 33 27 -9 27 -24 0 -35 -5
-35 -14z"/>
<path d="M8774 8265 c-18 -13 -17 -14 19 -15 26 0 37 4 37 15 0 19 -30 19 -56
0z"/>
<path d="M9868 8251 c-25 -22 -29 -31 -18 -34 92 -28 97 -29 137 -18 22 6 44
18 47 26 3 10 19 15 46 15 27 0 43 5 47 15 3 9 4 18 2 20 -2 2 -42 -6 -87 -16
-98 -23 -138 -22 -134 4 4 24 -3 22 -40 -12z"/>
<path d="M8668 8243 c-44 -18 -50 -33 -10 -28 43 6 84 24 77 35 -8 13 -22 11
-67 -7z"/>
<path d="M8976 8253 c-11 -11 -6 -23 9 -23 8 0 15 4 15 9 0 13 -16 22 -24 14z"/>
<path d="M8746 8191 c-6 -9 93 -35 102 -27 5 6 -65 36 -84 36 -7 0 -15 -4 -18
-9z"/>
<path d="M9135 8171 c-6 -5 -26 -14 -45 -20 -34 -11 -34 -11 13 -7 52 4 66 11
51 26 -6 6 -14 6 -19 1z"/>
<path d="M8642 8149 c6 -17 57 -24 71 -10 8 8 5 11 -8 11 -11 0 -31 3 -44 7
-18 4 -23 2 -19 -8z"/>
<path d="M9125 8060 c3 -5 13 -10 21 -10 8 0 12 5 9 10 -3 6 -13 10 -21 10 -8
0 -12 -4 -9 -10z"/>
<path d="M9280 8056 c0 -14 -93 -36 -151 -36 -13 0 -45 -7 -71 -14 -25 -8 -56
-12 -67 -9 -17 4 -20 2 -15 -11 5 -13 -2 -16 -44 -16 -28 0 -58 -3 -68 -7 -13
-5 -16 -3 -11 10 3 8 1 18 -6 20 -21 8 -47 -13 -47 -37 0 -17 -10 -28 -32 -40
-26 -12 -28 -16 -12 -16 11 0 24 4 30 9 12 13 125 41 162 41 16 0 54 7 83 16
30 8 83 24 119 34 36 11 85 23 110 27 31 6 46 14 48 26 2 10 -3 17 -12 17 -9
0 -16 -6 -16 -14z"/>
<path d="M8890 8020 c0 -12 45 -24 60 -15 5 3 8 11 5 16 -8 12 -65 12 -65 -1z"/>
<path d="M12151 9266 c-14 -17 -1 -28 19 -16 11 7 12 12 4 20 -8 8 -14 7 -23
-4z"/>
<path d="M11150 9225 c0 -8 9 -15 20 -15 11 0 20 7 20 15 0 8 -9 15 -20 15
-11 0 -20 -7 -20 -15z"/>
<path d="M12176 9171 c-3 -5 -44 -10 -91 -13 -115 -6 -130 -23 -28 -33 136
-13 161 -7 148 34 -7 22 -20 27 -29 12z"/>
<path d="M11160 9082 c0 -20 -6 -35 -15 -38 -19 -8 -22 -168 -3 -162 7 3 13
35 15 83 3 50 9 86 18 96 13 13 13 18 0 35 -14 18 -14 17 -15 -14z"/>
<path d="M11858 9103 c6 -2 18 -2 25 0 6 3 1 5 -13 5 -14 0 -19 -2 -12 -5z"/>
<path d="M10980 9065 c0 -6 4 -15 9 -20 5 -6 11 -28 13 -49 4 -51 20 -56 37
-11 13 38 9 55 -16 55 -9 0 -22 8 -29 18 -7 9 -14 12 -14 7z"/>
<path d="M12187 8953 c-11 -10 -8 -71 3 -78 6 -4 10 12 10 39 0 47 -2 51 -13
39z"/>
<path d="M12187 8813 c-10 -9 -7 -104 3 -128 6 -14 9 5 9 58 1 77 0 83 -12 70z"/>
<path d="M11040 8766 c0 -8 5 -18 10 -21 6 -3 10 1 10 9 0 8 -4 18 -10 21 -5
3 -10 -1 -10 -9z"/>
<path d="M11108 8642 c2 -38 0 -77 -5 -88 -13 -24 -4 -152 8 -133 5 8 9 39 9
69 0 30 4 71 9 90 5 19 12 56 15 83 5 44 4 47 -18 47 -23 0 -23 -2 -18 -68z"/>
<path d="M11008 8655 c-1 -25 -2 -52 -2 -62 -1 -9 5 -18 12 -20 9 -4 12 13 12
61 0 74 -19 92 -22 21z"/>
<path d="M12200 8538 c0 -7 5 -20 10 -28 8 -12 10 -11 10 7 0 12 -4 25 -10 28
-5 3 -10 0 -10 -7z"/>
<path d="M12165 8380 c-4 -6 7 -10 27 -10 25 0 29 3 18 10 -19 13 -37 13 -45
0z"/>
<path d="M11060 8357 c-37 -8 -55 -17 -55 -27 0 -22 41 -24 83 -4 30 14 43 15
85 5 61 -14 79 -14 114 1 26 10 22 12 -57 24 -103 15 -102 15 -170 1z"/>
<path d="M11690 8330 c0 -6 30 -10 69 -10 39 0 73 -4 76 -10 3 -5 18 -10 33
-9 25 0 24 2 -13 19 -43 20 -165 27 -165 10z"/>
<path d="M11504 8278 c56 -28 63 -30 110 -20 35 8 39 10 13 7 -40 -4 -93 10
-118 31 -8 8 -26 14 -40 14 -18 -1 -10 -8 35 -32z"/>
<path d="M11116 8262 c-10 -17 71 -39 86 -24 16 16 10 20 -39 28 -25 4 -43 2
-47 -4z"/>
<path d="M11290 8253 c8 -2 25 -9 36 -15 26 -12 56 -8 62 10 3 9 -12 12 -55
11 -32 0 -51 -3 -43 -6z"/>
<path d="M11693 8253 c15 -2 37 -2 50 0 12 2 0 4 -28 4 -27 0 -38 -2 -22 -4z"/>
<path d="M11930 8231 c-24 -7 -24 -7 8 -20 25 -11 35 -11 47 -1 30 25 0 36
-55 21z"/>
<path d="M12155 8230 c-4 -7 -3 -16 3 -22 14 -14 57 -6 57 12 0 18 -50 26 -60
10z"/>
<path d="M4568 9092 c-16 -10 -28 -20 -28 -24 0 -7 70 -32 74 -26 23 35 34 57
29 62 -11 11 -47 5 -75 -12z"/>
<path d="M4678 9103 c6 -2 18 -2 25 0 6 3 1 5 -13 5 -14 0 -19 -2 -12 -5z"/>
<path d="M4725 9100 c3 -5 12 -7 20 -3 21 7 19 13 -6 13 -11 0 -18 -4 -14 -10z"/>
<path d="M4800 9096 c0 -7 7 -19 15 -26 8 -7 15 -19 15 -27 0 -20 44 -12 48 9
4 20 -35 58 -60 58 -10 0 -18 -6 -18 -14z"/>
<path d="M4930 9105 c0 -2 8 -20 17 -40 20 -42 37 -41 41 2 2 25 -1 32 -20 37
-28 7 -38 8 -38 1z"/>
<path d="M5295 9100 c-4 -7 7 -8 32 -5 51 8 118 -15 118 -41 0 -15 -9 -20 -45
-22 -24 -2 -50 -8 -56 -13 -13 -11 -171 -32 -189 -25 -15 6 -42 -11 -32 -20
10 -10 215 -11 250 -1 15 4 27 11 27 17 0 5 -12 11 -27 13 -25 4 4 7 92 11 14
1 21 9 22 26 3 21 -5 29 -45 48 -49 23 -136 30 -147 12z"/>
<path d="M5263 9023 c15 -2 37 -2 50 0 12 2 0 4 -28 4 -27 0 -38 -2 -22 -4z"/>
<path d="M4956 8975 c-9 -26 -7 -35 8 -35 23 0 30 20 14 37 -14 13 -16 13 -22
-2z"/>
<path d="M5416 8961 c-3 -5 1 -11 9 -15 8 -3 15 -12 15 -21 0 -8 7 -15 15 -15
17 0 39 36 30 50 -8 12 -62 13 -69 1z"/>
<path d="M5216 8901 c-7 -10 82 -24 96 -15 17 10 -14 24 -54 24 -20 0 -39 -4
-42 -9z"/>
<path d="M4400 8705 c-14 -8 -20 -14 -14 -15 5 0 19 7 30 15 24 18 16 19 -16
0z"/>
<path d="M5280 8702 c-24 -19 -56 -19 -44 -1 3 5 -4 9 -15 9 -27 0 -26 -7 2
-31 28 -23 36 -23 65 1 32 27 24 47 -8 22z"/>
<path d="M5076 8677 c-18 -13 -18 -14 -1 -21 12 -4 26 0 39 14 l20 20 -20 0
c-11 0 -28 -6 -38 -13z"/>
<path d="M4285 8670 c-8 -13 12 -40 30 -40 6 0 17 11 23 25 11 24 10 25 -18
25 -16 0 -32 -5 -35 -10z"/>
<path d="M4970 8650 c0 -13 11 -13 30 0 12 8 11 10 -7 10 -13 0 -23 -4 -23
-10z"/>
<path d="M5130 8614 c0 -9 5 -14 12 -12 18 6 21 28 4 28 -9 0 -16 -7 -16 -16z"/>
<path d="M5714 8604 c-8 -30 7 -44 48 -44 40 0 42 15 4 44 -43 32 -44 32 -52
0z"/>
<path d="M4875 8613 c-49 -10 -119 -38 -235 -95 -250 -122 -272 -133 -298
-159 -63 -61 -102 -107 -102 -122 0 -20 38 -47 67 -47 29 0 29 17 2 46 -28 30
-19 54 21 54 28 0 29 2 18 21 -11 18 -10 23 11 40 13 10 34 19 46 19 13 0 25
3 27 8 7 16 115 74 148 80 19 3 51 16 70 29 19 12 40 23 46 23 6 0 30 14 52
30 23 17 50 30 59 30 25 0 91 24 105 38 13 13 3 14 -37 5z"/>
<path d="M4210 8576 c0 -32 18 -43 37 -23 20 20 10 47 -17 47 -15 0 -20 -7
-20 -24z"/>
<path d="M4080 8540 c6 -11 18 -20 27 -20 9 0 27 -9 39 -21 29 -27 17 -57 -37
-90 -39 -24 -48 -42 -28 -54 15 -10 55 31 90 91 33 58 34 64 16 64 -7 0 -28
11 -47 25 -43 32 -76 34 -60 5z"/>
<path d="M5900 8536 c0 -2 7 -6 15 -10 8 -3 15 -1 15 4 0 6 -7 10 -15 10 -8 0
-15 -2 -15 -4z"/>
<path d="M4047 8514 c-3 -4 0 -19 9 -35 10 -20 22 -29 39 -29 32 0 32 18 0 30
-14 5 -25 16 -25 25 0 15 -12 20 -23 9z"/>
<path d="M5950 8501 c0 -10 -9 -30 -21 -45 -17 -21 -29 -26 -65 -26 -28 0 -43
-4 -39 -10 7 -11 94 -14 120 -4 26 10 47 61 35 84 -13 25 -30 26 -30 1z"/>
<path d="M5835 8500 c-3 -6 1 -7 9 -4 18 7 21 14 7 14 -6 0 -13 -4 -16 -10z"/>
<path d="M3973 8473 c-18 -7 -16 -20 4 -27 17 -7 36 12 27 26 -6 9 -12 9 -31
1z"/>
<path d="M5043 8461 c-60 -24 -59 -27 10 -21 46 4 62 9 62 20 0 21 -23 21 -72
1z"/>
<path d="M5615 8460 c-3 -5 3 -10 14 -10 12 0 21 5 21 10 0 6 -6 10 -14 10 -8
0 -18 -4 -21 -10z"/>
<path d="M5675 8460 c-4 -6 15 -10 49 -10 30 0 58 5 61 10 4 6 -15 10 -49 10
-30 0 -58 -4 -61 -10z"/>
<path d="M6045 8430 c-3 -5 1 -21 10 -34 16 -25 16 -25 -19 -32 -20 -3 -39
-10 -41 -15 -9 -14 34 -30 73 -27 44 4 55 33 22 63 -11 10 -20 24 -20 31 0 17
-17 27 -25 14z"/>
<path d="M4650 8415 c0 -11 7 -15 23 -13 12 2 22 8 22 13 0 6 -10 11 -22 13
-16 2 -23 -2 -23 -13z"/>
<path d="M4920 8415 c-19 -7 -59 -14 -88 -14 -36 -1 -51 -5 -46 -12 10 -17
102 -6 154 18 50 24 35 29 -20 8z"/>
<path d="M3877 8413 c-16 -15 -6 -34 15 -31 29 4 38 38 10 38 -10 0 -22 -3
-25 -7z"/>
<path d="M3980 8391 c0 -5 5 -13 10 -16 6 -3 10 -2 10 4 0 5 -4 13 -10 16 -5
3 -10 2 -10 -4z"/>
<path d="M4453 8352 c-13 -8 -7 -52 7 -52 7 0 20 33 20 53 0 9 -12 9 -27 -1z"/>
<path d="M5355 8345 c35 -17 85 -19 85 -5 0 11 2 11 -65 15 -50 4 -50 4 -20
-10z"/>
<path d="M5688 8348 c6 -8 44 -20 82 -27 39 -6 90 -20 113 -30 23 -11 69 -25
102 -31 33 -7 75 -18 93 -26 17 -7 32 -9 32 -5 0 17 -47 39 -96 47 -55 8 -98
22 -74 24 24 2 -21 18 -53 19 -15 1 -40 7 -55 15 -15 7 -56 17 -92 21 -56 7
-63 6 -52 -7z"/>
<path d="M3808 8319 c-10 -5 -30 -31 -44 -57 -15 -26 -34 -54 -41 -64 -13 -14
-12 -17 7 -23 25 -8 22 -12 46 50 17 41 25 50 55 58 41 10 62 27 33 27 -11 0
-24 4 -29 9 -6 6 -17 6 -27 0z"/>
<path d="M3996 8318 c-17 -9 -17 -12 -4 -22 8 -6 19 -19 24 -29 9 -16 12 -16
34 8 23 25 23 25 4 40 -23 17 -33 18 -58 3z"/>
<path d="M3910 8310 c0 -5 11 -10 25 -10 14 0 25 5 25 10 0 6 -11 10 -25 10
-14 0 -25 -4 -25 -10z"/>
<path d="M4803 8313 c-7 -2 -13 -9 -13 -14 0 -14 72 -10 100 6 24 14 23 14
-25 14 -27 0 -56 -3 -62 -6z"/>
<path d="M5125 8310 c-12 -20 11 -32 45 -25 35 8 30 20 -11 30 -16 4 -30 2
-34 -5z"/>
<path d="M6130 8283 c0 -25 10 -36 52 -55 20 -9 39 -25 42 -35 3 -10 20 -24
38 -31 36 -13 53 -5 23 12 -11 6 -31 24 -45 40 -61 69 -79 86 -94 86 -9 0 -16
-8 -16 -17z"/>
<path d="M5433 8254 c-16 -13 -14 -14 22 -13 22 0 83 -6 135 -14 103 -15 141
-8 63 13 -26 6 -55 15 -63 18 -33 12 -139 10 -157 -4z"/>
<path d="M3844 8236 c-7 -20 2 -46 16 -46 13 0 13 47 0 55 -6 3 -13 -1 -16 -9z"/>
<path d="M3924 8224 c-9 -35 6 -47 42 -34 34 12 69 56 36 46 -11 -4 -31 -2
-46 3 -23 9 -26 8 -32 -15z"/>
<path d="M4462 8232 c-13 -4 -22 -11 -20 -17 4 -13 162 -12 166 1 4 12 -33 22
-83 22 -22 0 -50 -3 -63 -6z"/>
<path d="M5934 8221 c9 -14 143 -63 163 -59 10 2 18 12 18 22 0 18 -7 19 -60
18 -38 -2 -70 3 -89 13 -33 17 -39 19 -32 6z"/>
<path d="M4173 8205 c-8 -22 6 -33 17 -15 13 20 12 30 0 30 -6 0 -13 -7 -17
-15z"/>
<path d="M4740 8195 l-45 -11 47 -7 c48 -7 78 -2 78 13 0 14 -35 16 -80 5z"/>
<path d="M6257 8019 c11 -12 29 -19 39 -17 16 3 13 7 -13 21 -43 23 -52 21
-26 -4z"/>
<path d="M6365 8030 c-8 -14 3 -30 21 -30 8 0 14 9 14 20 0 21 -24 28 -35 10z"/>
<path d="M6320 7975 c7 -8 19 -15 26 -15 9 0 14 -12 14 -35 0 -37 25 -50 36
-20 11 27 32 16 45 -22 l12 -37 18 23 c11 13 19 31 19 40 0 19 -51 42 -78 34
-11 -3 -28 5 -43 21 -26 28 -72 38 -49 11z"/>
<path d="M3745 7764 c-9 -25 -14 -48 -10 -52 4 -4 10 -1 13 7 3 8 18 27 35 42
30 28 29 49 -2 49 -12 0 -24 -15 -36 -46z"/>
<path d="M3647 7793 c-4 -3 -7 -12 -7 -20 0 -20 28 -15 40 7 9 17 8 20 -8 20
-10 0 -22 -3 -25 -7z"/>
<path d="M3897 7520 c3 -11 9 -17 14 -15 10 7 1 35 -11 35 -5 0 -6 -9 -3 -20z"/>
<path d="M3730 7471 c0 -12 6 -21 15 -21 8 0 15 4 15 9 0 5 -7 14 -15 21 -13
10 -15 9 -15 -9z"/>
<path d="M3932 7466 c1 -10 8 -17 13 -17 15 1 12 24 -3 29 -9 3 -13 -2 -10
-12z"/>
<path d="M3646 7422 c-2 -4 0 -25 4 -47 5 -22 14 -60 19 -85 l9 -45 1 61 c2
93 -13 147 -33 116z"/>
<path d="M3895 7319 c-5 -15 -2 -25 8 -31 9 -5 19 -24 23 -43 3 -20 10 -38 15
-41 14 -8 10 54 -4 67 -7 7 -11 25 -9 41 5 34 -23 40 -33 7z"/>
<path d="M3770 7245 c0 -8 5 -15 10 -15 6 0 10 7 10 15 0 8 -4 15 -10 15 -5 0
-10 -7 -10 -15z"/>
<path d="M4009 7238 c-10 -18 -8 -24 6 -34 24 -18 35 -9 35 27 0 35 -24 39
-41 7z"/>
<path d="M3685 7188 c5 -33 4 -48 -4 -48 -20 0 -11 -42 14 -66 l25 -23 0 23
c0 12 -5 49 -11 82 -15 73 -34 99 -24 32z"/>
<path d="M3835 7151 c-7 -13 12 -51 26 -51 14 0 7 52 -8 57 -6 2 -14 -1 -18
-6z"/>
<path d="M3766 7103 c-10 -25 10 -39 23 -15 10 19 6 32 -10 32 -4 0 -10 -8
-13 -17z"/>
<path d="M3711 6966 c-7 -37 -11 -70 -7 -73 3 -4 17 4 31 17 30 28 33 69 7
100 -18 22 -18 22 -31 -44z"/>
<path d="M14104 7201 c-42 -26 -76 -76 -85 -125 -3 -23 -12 -72 -19 -111 -16
-88 -15 -334 1 -417 7 -35 21 -76 31 -93 10 -16 18 -37 18 -46 0 -21 82 -97
113 -105 33 -8 60 8 86 50 20 32 20 66 0 66 -5 0 -19 -16 -31 -35 -29 -44 -48
-44 -88 2 -57 65 -77 129 -89 283 -16 208 15 406 72 468 42 44 67 41 116 -14
44 -50 47 -49 31 6 -7 23 -24 44 -50 63 -48 32 -64 33 -106 8z"/>
<path d="M14348 6859 c6 -153 -15 -416 -38 -489 -25 -76 -40 -95 -99 -122 -42
-19 -46 -19 -85 -4 -36 14 -42 14 -55 1 -10 -10 -11 -15 -4 -15 7 0 29 -11 49
-25 88 -59 165 -8 216 145 44 130 50 170 55 345 4 131 1 179 -9 209 -24 66
-33 52 -30 -45z"/>
<path d="M4754 5769 c-11 -18 -41 -99 -60 -164 -21 -68 -12 -180 20 -275 29
-81 60 -121 121 -153 77 -40 255 -20 255 28 0 17 -45 21 -55 5 -9 -15 -101
-12 -140 4 -47 20 -78 52 -109 111 -50 99 -58 214 -22 352 10 39 13 69 8 84
-7 18 -11 20 -18 8z"/>
</g>
</svg>
